<?xml version="1.0" encoding="UTF-8"?> <!-- Generator: Adobe Illustrator 25.4.1, SVG Export Plug-In . SVG Version: 6.00 Build 0) --> <svg xmlns="http://www.w3.org/2000/svg" xmlns:xlink="http://www.w3.org/1999/xlink" version="1.1" id="Layer_1" x="0px" y="0px" viewBox="0 0 340.16 226.77" style="enable-background:new 0 0 340.16 226.77;" xml:space="preserve"> <style type="text/css"> .st0{fill:#FF8F00;} .st1{clip-path:url(#SVGID_00000050657590062128851320000011607322741648314283_);fill:none;stroke:#FF8F00;stroke-width:15.2764;stroke-linejoin:round;} .st2{fill:none;stroke:#FF8F00;stroke-width:15.2764;stroke-linejoin:round;} .st3{clip-path:url(#SVGID_00000037679580986734729380000015916620305458139836_);fill:none;stroke:#FF8F00;stroke-width:15.2764;stroke-linejoin:round;} .st4{clip-path:url(#SVGID_00000121272479342135926610000015996711655080635794_);fill:none;stroke:#FF8F00;stroke-width:15.2764;stroke-linejoin:round;} .st5{clip-path:url(#SVGID_00000071547301125739351320000015862461396090696867_);fill:none;stroke:#FF8F00;stroke-width:15.2764;stroke-linejoin:round;} .st6{fill:none;stroke:#FFFFFF;stroke-width:2.0369;stroke-linejoin:round;} </style> <g> <path class="st0" d="M252.23,143.56c-0.17-0.54-0.48-0.65-0.97-0.51c-0.68,0.2-1.35,0.42-2.04,0.59c-0.18,0.05-0.49,0.04-0.58-0.07 c-0.12-0.15-0.14-0.43-0.09-0.64c0.09-0.41,0.24-0.8,0.38-1.2c0.23-0.67,0.73-1.02,1.41-1.16c0.21-0.04,0.43-0.04,0.63-0.11 c0.4-0.14,0.54-0.59,0.25-0.86c-0.38-0.35-0.83-0.64-1.22-0.99c-0.19-0.17-0.43-0.41-0.45-0.63c-0.03-0.35,0.14-0.72,0.18-1.08 c0.03-0.32,0.06-0.66-0.04-0.96c-0.04-0.13-0.46-0.27-0.58-0.2c-0.24,0.13-0.5,0.39-0.58,0.65c-0.23,0.75-0.37,1.52-0.54,2.28 c-0.13,0.59-0.58,0.84-1.15,0.62c-0.12-0.05-0.22-0.17-0.34-0.18c-0.27,0-0.54,0.05-0.8,0.08c0.08,0.28,0.11,0.59,0.27,0.82 c0.1,0.14,0.38,0.16,0.58,0.22c0.44,0.14,0.78,0.37,0.77,0.89c-0.01,0.59-0.46,1.45-0.82,1.56c-1.35,0.41-2.7,0.81-4.06,1.21 c-0.43,0.13-0.7-0.09-0.59-0.51c0.12-0.49,0.28-0.97,0.44-1.46c0.2-0.62,0.48-1.21,0.6-1.84c0.16-0.92,0.13-0.93,0.97-0.61 c0.13,0.05,0.37,0.05,0.45-0.04c0.09-0.09,0.13-0.33,0.08-0.46c-0.08-0.18-0.24-0.35-0.41-0.45c-0.73-0.44-0.82-0.68-0.42-1.43 c0.2-0.37,0.14-0.59-0.2-0.86c-0.79-0.64-1.55-1.31-2.3-2c-0.39-0.36-0.27-0.67,0.25-0.82c0.49-0.14,0.98-0.35,1.48-0.4 c1.59-0.16,2.28-1.54,3.36-2.38c0.32-0.25,0.26-0.58-0.13-0.83c-0.17-0.11-0.27-0.32-0.41-0.49c0.21-0.14,0.42-0.38,0.64-0.4 c0.65-0.07,0.96-0.46,1.05-1.03c0.05-0.33-0.01-0.67-0.03-1.01L79.59,170.24l-0.11,2.71c0.73,0.27,1.37,0.73,1.85,1.47 c0.18,0.28,0.32,0.67,0.29,0.99c-0.15,1.35-0.34,2.69-0.6,4.02c-0.06,0.32-0.38,0.68-0.69,0.85c-0.48,0.26-0.59,0.59-0.45,1.05 c0.27,0.89,0.58,1.76,0.84,2.65c0.07,0.25,0.13,0.71,0.03,0.77c-0.27,0.14-0.66,0.22-0.95,0.14c-1.08-0.29-2.09-0.71-2.67-1.79 c-0.09-0.17-0.54-0.14-0.82-0.2c-0.04,0.26-0.19,0.57-0.09,0.76c0.47,0.91,0.25,1.73-0.38,2.41c-0.57,0.61-0.77,1.32-0.87,2.07 c-0.08,0.66-0.37,1.15-0.9,1.53c0.1,0.37,0.19,0.74,0.29,1.11c0.2-0.11,0.45-0.19,0.58-0.35c0.55-0.73,0.84-0.82,1.48-0.23 c0.49,0.44,0.95,0.49,1.52,0.24c0.21-0.1,0.45-0.14,0.68-0.2c0.92-0.23,0.92-0.24,0.81-1.14c-0.02-0.15,0.03-0.42,0.11-0.44 c0.15-0.05,0.37-0.01,0.52,0.07c0.24,0.13,0.44,0.37,0.69,0.45c0.24,0.08,0.54,0.1,0.78,0.02c1.02-0.33,2.02-0.69,3.02-1.07 c0.59-0.23,1.16-0.53,1.76-0.74c0.41-0.14,0.85-0.2,1.29-0.26c0.23-0.03,0.47,0.04,0.7,0.01c1.91-0.22,3.45-1.34,5.11-2.15 c0.76-0.38,1.3-1.12,2.25-1.23c0.63-0.07,0.75-0.79,0.31-1.25c-0.1-0.11-0.15-0.27-0.25-0.46c0.44,0.09,0.75,0.17,1.06,0.2 c0.46,0.05,0.66,0.22,0.47,0.71c-0.19,0.49-0.02,0.67,0.5,0.57c0.23-0.04,0.45-0.13,0.68-0.21c1.76-0.6,3.51-1.23,5.28-1.81 c1.59-0.52,3.19-0.99,4.8-1.45c1.39-0.39,2.79-0.8,4.21-1.08c0.57-0.11,1.13-0.1,1.61-0.48c0.09-0.07,0.24-0.07,0.37-0.11 c1.23-0.35,2.47-0.68,3.69-1.05c0.89-0.27,1.74-0.64,2.64-0.87c0.91-0.24,1.59-0.58,1.61-1.66c0.01-0.47,0.33-0.68,0.86-0.58 c0.21,0.04,0.46-0.15,0.69-0.23c-0.14-0.27-0.22-0.66-0.44-0.79c-0.63-0.36-0.67-0.45-0.34-1.13c0.1-0.21,0.1-0.62-0.04-0.77 c-0.73-0.75-1.52-1.44-2.3-2.15c-0.42-0.38-0.38-0.74,0.15-0.9c1.35-0.42,2.71-0.82,4.07-1.18c0.26-0.07,0.66,0.04,0.86,0.22 c0.78,0.69,1.55,1.4,2.23,2.18c0.24,0.27,0.36,0.79,0.28,1.15c-0.19,0.95-0.53,1.88-0.79,2.81c-0.17,0.61,0.18,0.97,0.78,0.81 c0.29-0.08,0.6-0.13,0.85-0.27c0.18-0.11,0.35-0.34,0.4-0.55c0.23-0.96,0.43-1.92,0.61-2.89c0.09-0.51,0.53-1.06-0.03-1.53 c-0.46-0.39-0.88-0.72-0.57-1.43c0.07-0.15-0.18-0.43-0.28-0.65c-0.17,0.09-0.33,0.23-0.51,0.27c-0.21,0.04-0.51,0.07-0.63-0.04 c-0.94-0.83-1.84-1.7-2.75-2.56c-0.32-0.3-0.32-0.56,0.12-0.71c1.21-0.41,2.44-0.8,3.65-1.2c0.65-0.21,1.17,0.02,1.65,0.42 c0.18,0.15,0.34,0.32,0.52,0.47c0.36,0.28,0.33,0.55,0.01,0.85c-0.27,0.25-0.52,0.5-0.77,0.77c-0.3,0.32-0.52,0.74-0.12,1.06 c0.46,0.37,0.64-0.13,0.87-0.42c0.13-0.17,0.31-0.29,0.46-0.44c0.56-0.53,0.85-0.55,1.4-0.03c0.6,0.57,1.13,1.23,1.79,1.72 c0.9,0.68,0.51,1.49,0.35,2.27c-0.17,0.86-0.43,1.71-0.64,2.57c-0.03,0.12,0.03,0.27,0.04,0.35c0.66-0.17,1.29-0.27,1.87-0.51 c0.25-0.11,0.51-0.47,0.55-0.76c0.19-1.11,0.67-1.4,1.66-0.94c0.13,0.06,0.37,0.11,0.45,0.04c0.1-0.08,0.14-0.3,0.12-0.45 c-0.09-0.58-0.56-0.76-1.06-0.87c-0.52-0.12-0.66-0.4-0.46-0.89c0.36-0.88,0.36-0.88-0.44-1.46c-0.07-0.05-0.17-0.11-0.18-0.18 c-0.11-0.84-0.99-0.91-1.42-1.43c-0.16-0.2-0.28-0.42-0.41-0.64c0.23-0.13,0.44-0.31,0.68-0.39c1.17-0.35,2.35-0.64,3.51-1.01 c0.43-0.14,0.78-0.18,1.12,0.15c0.77,0.75,1.59,1.46,2.3,2.25c0.23,0.25,0.33,0.77,0.25,1.11c-0.21,0.95-0.59,1.86-0.82,2.8 c-0.08,0.33-0.04,0.79,0.14,1.05c0.13,0.19,0.59,0.21,0.91,0.21c0.29,0,0.59-0.12,0.88-0.19c0.45-0.12,0.64-0.39,0.34-0.79 c-0.31-0.42-0.29-0.8-0.05-1.24c0.11-0.2,0.13-0.44,0.19-0.66c0.16-0.61,0.26-1.25,0.51-1.82c0.26-0.58,0.13-0.87-0.38-1.2 c-0.26-0.17-0.49-0.59-0.5-0.91c-0.02-0.55-0.28-0.75-0.75-0.71c-0.62,0.06-0.99-0.31-1.36-0.69c-0.55-0.56-1.09-1.13-1.61-1.71 c-0.15-0.16-0.38-0.45-0.33-0.54c0.1-0.19,0.36-0.34,0.59-0.41c1.21-0.36,2.44-0.66,3.64-1.05c0.82-0.27,1.1,0.35,1.54,0.74 c0.34,0.31,0.17,0.62,0.03,0.98c-0.09,0.23,0.04,0.54,0.08,0.81c0.23-0.04,0.46-0.09,0.7-0.11c0.29-0.03,0.7-0.16,0.85-0.02 c0.87,0.78,1.69,1.6,2.49,2.45c0.14,0.15,0.19,0.48,0.14,0.7c-0.24,1.05-0.5,2.09-0.82,3.12c-0.09,0.27-0.37,0.57-0.63,0.68 c-0.42,0.18-0.91,0.22-1.37,0.33c-0.45,0.11-0.65,0.4-0.58,0.85c0.07,0.47,0.35,0.75,0.84,0.66c1.01-0.18,2.02-0.38,3.02-0.62 c0.24-0.06,0.55-0.25,0.64-0.46c0.25-0.58,0.39-1.2,0.59-1.8c0.16-0.48,0.15-1.07,0.81-1.26c0.61-0.18,0.73-0.49,0.31-0.96 c-0.33-0.38-0.34-0.71-0.17-1.16c0.09-0.23,0.05-0.63-0.1-0.79c-0.7-0.74-1.45-1.43-2.21-2.11c-0.32-0.28-0.33-0.55-0.05-0.8 c0.23-0.2,0.53-0.37,0.82-0.46c0.94-0.29,1.91-0.51,2.84-0.82c0.62-0.2,1.06-0.06,1.49,0.39c0.54,0.56,1.13,1.09,1.71,1.62 c0.72,0.67,0.8,1.06,0.51,1.98c-0.22,0.7-0.3,1.45-0.54,2.14c-0.12,0.36-0.42,0.89-0.69,0.92c-0.47,0.05-0.96-0.24-1.45-0.36 c-0.21-0.05-0.43-0.04-0.64-0.05c-0.01,0.22-0.08,0.47-0.01,0.66c0.23,0.59,0.82,0.58,1.33,0.74c0.28,0.09,0.66,0.22,0.76,0.44 c0.24,0.54,0.58,0.53,1.04,0.41c1.1-0.3,2.19-0.59,3.3-0.88c1.48-0.38,2.96-0.72,4.42-1.14c0.38-0.11,0.88-0.37,0.99-0.68 c0.32-0.87,0.51-1.79,0.67-2.7c0.14-0.78,0.26-0.89,1.04-0.7c0.19,0.05,0.43-0.09,0.65-0.15c-0.11-0.27-0.14-0.66-0.35-0.78 c-0.79-0.46-0.85-0.5-0.51-1.35c0.15-0.36,0.09-0.58-0.21-0.83c-0.77-0.65-1.53-1.32-2.27-2c-0.17-0.15-0.36-0.45-0.32-0.62 c0.05-0.17,0.37-0.31,0.59-0.38c1.16-0.37,2.34-0.71,3.5-1.07c0.56-0.18,1.04-0.02,1.43,0.34c0.8,0.73,1.56,1.49,2.32,2.26 c0.13,0.13,0.24,0.38,0.2,0.56c-0.1,0.52-0.27,1.02-0.4,1.53c-0.15,0.57-0.33,1.14-0.4,1.72c-0.1,0.79-0.4,0.98-1.15,0.63 c-0.12-0.06-0.36-0.11-0.39-0.06c-0.09,0.12-0.16,0.33-0.11,0.45c0.09,0.22,0.24,0.46,0.44,0.58c0.43,0.24,0.6,0.55,0.54,1.04 c-0.02,0.15,0.24,0.48,0.29,0.46c0.55-0.18,1.1-0.4,1.63-0.64c0.16-0.07,0.26-0.32,0.43-0.36c1.38-0.4,2.76-0.77,4.15-1.15 c0.08-0.02,0.19-0.04,0.25,0c0.61,0.42,1.23,0.1,1.85,0.03c0.5-0.06,0.79-0.27,0.92-0.73c0.28-1,0.59-1.99,0.82-3 c0.16-0.69,0.39-0.92,0.94-0.81c0.22,0.04,0.47-0.09,0.71-0.14c-0.12-0.28-0.17-0.7-0.39-0.82c-0.7-0.42-0.71-0.41-0.43-1.15 c0.1-0.28,0.09-0.77-0.1-0.96c-0.72-0.73-1.54-1.38-2.31-2.07c-0.13-0.12-0.31-0.36-0.26-0.45c0.07-0.15,0.29-0.28,0.47-0.35 c1.09-0.37,2.18-0.77,3.3-1.06c0.48-0.12,1.18-0.19,1.51,0.06c0.9,0.69,1.69,1.54,2.46,2.39c0.18,0.2,0.14,0.62,0.14,0.94 c0,0.18-0.12,0.36-0.17,0.54c-0.23,0.9-0.44,1.8-0.7,2.69c-0.04,0.13-0.26,0.27-0.41,0.29c-0.61,0.11-0.74,0.26-0.45,0.77 c0.31,0.53,0.4,1.05,0.29,1.64c-0.02,0.13,0.16,0.39,0.29,0.44c0.5,0.15,1.22-0.26,1.53-0.69c0.22-0.31,0.53-0.64,0.87-0.76 c1.19-0.43,2.4-0.79,3.61-1.16c0.43-0.13,0.66,0.04,0.72,0.46c0.06,0.47,0.32,0.77,0.8,0.74c0.62-0.05,1.24-0.13,1.84-0.28 c0.4-0.1,0.57-0.33,0.19-0.73c-0.17-0.18-0.26-0.54-0.21-0.78c0.17-0.79,0.41-1.56,0.63-2.34c0.13-0.45,0.24-0.9,0.44-1.32 c0.07-0.15,0.35-0.2,0.55-0.28c0.21-0.09,0.42-0.16,0.64-0.24c-0.13-0.26-0.19-0.65-0.4-0.75c-0.48-0.23-0.52-0.49-0.31-0.91 c0.23-0.45,0.16-0.9-0.19-1.23c-0.69-0.65-1.43-1.26-2.13-1.9c-0.14-0.13-0.32-0.35-0.29-0.51c0.02-0.16,0.25-0.3,0.42-0.42 c0.1-0.07,0.24-0.07,0.37-0.11c1.26-0.35,2.51-0.71,3.77-1.03c0.21-0.05,0.54,0,0.69,0.14c0.75,0.66,1.46,1.36,2.17,2.07 c0.4,0.39,0.62,0.86,0.46,1.44c-0.21,0.8-0.42,1.6-0.62,2.39c-0.28,1.11-0.73,1.32-1.75,0.78c-0.35-0.18-0.73-0.36-0.91,0.12 c-0.15,0.41,0,0.8,0.51,0.93c0.35,0.1,0.7,0.2,1.05,0.3c0.36,0.09,0.49,0.28,0.36,0.66c-0.14,0.38-0.26,0.77-0.32,1.16 c-0.02,0.14,0.13,0.41,0.26,0.45c0.6,0.19,1.5-0.28,1.65-0.89c0.15-0.58,0.49-0.8,1.03-0.98c1.09-0.36,2.26-0.47,3.21-1.23 c0.41-0.33,0.89-0.08,1.03,0.41c0.25,0.86,0.31,0.84,1.22,0.64c0.82-0.18,1.67-0.21,2.51-0.29c0.18-0.02,0.46,0.06,0.51-0.02 c0.1-0.16,0.15-0.47,0.06-0.58c-0.18-0.21-0.47-0.45-0.73-0.46c-0.6-0.03-0.76-0.32-0.66-0.82c0.2-0.95,0.39-1.91,0.65-2.84 c0.07-0.23,0.41-0.4,0.65-0.58c0.17-0.13,0.53-0.21,0.54-0.33c0.02-0.24-0.07-0.59-0.25-0.71c-0.4-0.29-0.42-0.58-0.26-0.99 c0.19-0.52,0.02-0.97-0.37-1.33c-0.67-0.62-1.36-1.21-2.02-1.83c-0.13-0.13-0.23-0.38-0.2-0.55c0.02-0.13,0.25-0.29,0.41-0.33 c1.32-0.38,2.64-0.75,3.96-1.08c0.22-0.06,0.56-0.03,0.71,0.1c0.92,0.83,1.83,1.7,2.69,2.59c0.15,0.15,0.14,0.52,0.1,0.77 c-0.13,0.68-0.31,1.36-0.47,2.04c-0.11,0.43-0.2,0.87-0.35,1.29c-0.14,0.39-0.37,0.64-0.83,0.32c-0.1-0.07-0.35-0.12-0.39-0.07 c-0.09,0.12-0.18,0.33-0.13,0.44c0.1,0.21,0.26,0.44,0.45,0.56c0.38,0.23,0.39,0.49,0.33,0.91c-0.13,0.79-0.6,1.21-1.25,1.57 c-0.19,0.1-0.24,0.43-0.36,0.66c0.24,0.09,0.47,0.25,0.71,0.27c0.42,0.04,0.85-0.03,1.27-0.02c0.54,0.02,0.86-0.17,0.91-0.74 c0.1-1.13,0.7-1.91,1.77-2.28c1.11-0.39,2.25-0.7,3.38-1.03c0.14-0.04,0.38,0.01,0.45,0.1c0.08,0.1,0.03,0.32-0.01,0.47 c-0.06,0.26-0.24,0.52-0.24,0.77c0,0.57-0.23,0.94-0.7,1.28c-0.19,0.14-0.35,0.56-0.28,0.78c0.07,0.22,0.43,0.38,0.7,0.47 c0.21,0.07,0.47-0.05,0.7-0.04c2.09,0.16,4.04-0.47,5.91-1.24c1.08-0.45,2.11-1.03,3.28-1.26c0.54-0.11,0.57-0.39,0.23-0.81 c-0.18-0.22-0.38-0.56-0.33-0.81c0.14-0.75,0.39-1.47,0.6-2.2c0.15-0.53,0.51-0.78,1.05-0.91c1.17-0.27,2.33-0.61,3.49-0.89 c0.24-0.06,0.51,0.02,0.77,0.04c-0.07,0.27-0.11,0.55-0.22,0.8c-0.13,0.3-0.46,0.6-0.43,0.86c0.07,0.68-0.25,0.95-0.84,1.03 c-0.37,0.06-0.56,0.16-0.36,0.58c0.06,0.13-0.03,0.43-0.15,0.5c-0.33,0.2-0.63,0.46-0.35,0.79c0.18,0.22,0.65,0.4,0.92,0.33 c4.15-1.08,8.29-2.2,12.43-3.32c0.27-0.07,0.52-0.21,0.79-0.26C252.4,145.1,252.59,144.75,252.23,143.56L252.23,143.56z M99.99,176.61c0.13-0.24,0.3-0.47,0.47-0.69c0.44-0.59,0.6-0.54,0.99,0.07c0.28,0.43,0.66,0.84,1.1,1.1 c0.2,0.11,0.63-0.18,0.96-0.29c0.02-0.01,0.04-0.02,0.21-0.08c0.16,0.07,0.46,0.12,0.67,0.3c0.35,0.29,0.66,0.63,0.95,0.98 c0.23,0.28,0.09,0.48-0.22,0.56c-0.64,0.16-1.29,0.29-1.93,0.46c-0.64,0.17-1.27,0.38-1.91,0.55c-0.26,0.07-0.54,0.12-0.8,0.18 c0-0.31-0.1-0.66,0.01-0.93c0.2-0.51,0.21-0.91-0.27-1.22C99.8,177.33,99.79,176.99,99.99,176.61L99.99,176.61z M105.48,176.88 c-0.12-0.11-0.3-0.21-0.36-0.35c-0.05-0.11,0.04-0.27,0.09-0.59c0.24,0.25,0.43,0.35,0.45,0.49 C105.68,176.56,105.54,176.73,105.48,176.88L105.48,176.88z M103.42,174.75c-0.27,0.05-0.54,0.04-0.82,0.06 c-0.01-0.1-0.01-0.2-0.02-0.3c0.25-0.23,0.53-0.38,0.87-0.12C103.51,174.43,103.45,174.75,103.42,174.75L103.42,174.75z M88.81,172.41c-0.65,0.19-1.31,0.35-1.97,0.52c-0.01,0.08-0.03,0.16-0.04,0.24c-0.61-0.27-1.23-0.51-1.8-0.82 c-0.09-0.05-0.04-0.65,0.04-0.67c0.48-0.14,1.01-0.32,1.46-0.22c0.46,0.11,0.68,0.09,0.95-0.3c0.33-0.48,0.7-0.41,0.96,0.09 c0.12,0.24,0.29,0.45,0.47,0.64C89.08,172.1,89.16,172.3,88.81,172.41L88.81,172.41z M98.16,172.58c-0.07,0.18-0.09,0.43-0.22,0.51 c-0.43,0.26-0.8,0.15-1.03-0.29c0.01-0.09,0.02-0.19,0.03-0.28C97.35,172.54,97.75,172.56,98.16,172.58L98.16,172.58z M98.5,179.66 c-0.01,0.02-0.01,0.04-0.01,0.06c-0.08,0.46-0.38,0.7-0.84,0.75c-0.81,0.09-1.64,0.14-2.04,1.25c-0.3-0.42-0.59-0.68-0.72-1.01 c-0.3-0.77-0.59-1.01-1.43-1.02c-0.64-0.01-0.87-0.39-0.63-0.99c0.07-0.17,0.04-0.41-0.03-0.58c-0.31-0.71-0.1-1.18,0.65-1.37 c0.39-0.1,0.78-0.26,1.18-0.31c0.44-0.05,0.9-0.07,1.33,0.03c0.12,0.03,0.14,0.51,0.21,0.78c0.01,0.06,0.07,0.1,0.14,0.18 c0.67-0.34,0.67-0.34,1.22,0.15c0.08,0.07,0.16,0.14,0.25,0.2C98.79,178.47,98.79,178.47,98.5,179.66L98.5,179.66z M108.68,169.68 c-0.05,0.15-0.3,0.27-0.49,0.32c-0.63,0.17-1.27,0.28-1.89,0.48c-0.61,0.19-1.9-0.07-2.21-0.6c-0.3-0.51-0.68-0.52-1.18-0.51 c-0.43,0.01-0.94,0-1.28-0.21c-0.53-0.33-0.96-0.82-1.4-1.28c-0.42-0.44-0.35-0.67,0.23-0.84c0.66-0.19,1.32-0.35,1.99-0.52 c0-0.01,0-0.02-0.01-0.03c0.66-0.17,1.33-0.34,1.99-0.52c0.5-0.13,0.81,0.05,1.16,0.42c0.91,0.96,1.9,1.85,2.85,2.78 C108.57,169.31,108.73,169.55,108.68,169.68L108.68,169.68z M111.13,171.73c0.46,0.44,0.91,0.88,1.36,1.32 c0.65,0.64,1.71,1.12,0.94,2.34c-0.09,0.15-0.05,0.38-0.1,0.56c-0.24,0.91-0.62,1.17-1.55,1.2c-0.85,0.03-1.7,0.12-2.55,0.18 c0,0.1-0.01,0.19-0.01,0.29c-0.27-0.06-0.68-0.04-0.79-0.21c-0.15-0.24-0.21-0.69-0.08-0.93c0.24-0.48,0.24-0.77-0.23-1.06 c-0.12-0.07-0.21-0.35-0.17-0.5c0.13-0.44,0.05-0.64-0.46-0.61c-0.42,0.02-0.56-0.19-0.3-0.55c0.21-0.31,0.26-0.57-0.08-0.82 c-0.15-0.11-0.26-0.28-0.39-0.42c0.18-0.13,0.35-0.32,0.56-0.39c0.73-0.24,1.5-0.39,2.21-0.68 C110.14,171.18,110.65,171.27,111.13,171.73L111.13,171.73z M116.5,167.86c0.35,0.48,0.09,0.78-0.19,1.18 c-0.13,0.19-0.07,0.69,0.1,0.87c0.28,0.3,0.55,0.07,0.76-0.25c0.36-0.56,0.62-0.61,1.12-0.13c0.78,0.75,1.5,1.55,2.27,2.3 c0.33,0.33,0.38,0.68,0.26,1.1c-0.24,0.83-0.45,1.67-0.73,2.49c-0.07,0.19-0.35,0.45-0.54,0.45c-0.77-0.01-1.53-0.12-2.18,0.45 c-0.05,0.05-0.16,0.02-0.25,0.03c-0.51,0.05-1.03,0.11-1.54,0.14c-0.16,0.01-0.36,0.01-0.47-0.08c-0.07-0.05-0.07-0.27-0.03-0.4 c0.15-0.51,0.37-0.99,0.48-1.51c0.06-0.29,0.09-0.73-0.08-0.9c-0.65-0.66-0.4-1.25,0-1.87c0.12-0.18,0.28-0.35,0.32-0.55 c0.05-0.25-0.01-0.53-0.02-0.79c-0.3,0.08-0.63,0.09-0.88,0.25c-0.22,0.14-0.31,0.45-0.5,0.65c-0.43,0.43-0.93,0.38-1.34-0.06 c-0.56-0.6-1.13-1.19-1.72-1.76c-0.68-0.66-0.67-0.88,0.16-1.35c0.13-0.07,0.27-0.14,0.41-0.18c0.82-0.22,1.65-0.43,2.47-0.64 c-0.01-0.02-0.01-0.05-0.02-0.07c0.14-0.05,0.28-0.12,0.42-0.15C115.31,166.96,116.13,167.35,116.5,167.86L116.5,167.86z M123.22,165.68c-1.1-0.02-1.99,0.58-2.97,0.91c-0.67,0.23-1.36,0.5-1.99-0.18c-0.86-0.93-1.79-1.8-2.68-2.7 c-0.29-0.3-0.07-0.46,0.24-0.51c0.76-0.12,1.52-0.25,2.29-0.31c0.36-0.03,0.5-0.14,0.63-0.47c0.15-0.36,0.46-0.66,0.75-1.06 c0.35,0.18,0.59,0.28,0.79,0.43c0.21,0.14,0.38,0.33,0.57,0.5c0.88,0.83,1.78,1.63,2.63,2.49 C123.85,165.14,123.69,165.68,123.22,165.68L123.22,165.68z M138.01,161.16c-1.23,0.48-2.49,0.89-3.76,1.25 c-0.23,0.07-0.61-0.13-0.83-0.32c-0.66-0.56-1.29-1.16-1.92-1.76c-0.37-0.35-0.73-0.72-1.09-1.08c0.04-0.09,0.07-0.17,0.11-0.26 c0.58,0.04,1.16,0.07,1.73,0.14c0.59,0.07,1.18,0.22,1.68-0.31c0.12-0.13,0.4-0.11,0.6-0.16c0.24-0.07,0.53-0.07,0.71-0.22 c0.53-0.41,0.93-0.16,1.31,0.18c0.55,0.49,1.06,1.02,1.59,1.52C138.59,160.57,138.6,160.94,138.01,161.16L138.01,161.16z M153.2,156.93c-1.28,0.34-2.56,0.71-3.84,1.03c-0.24,0.06-0.6,0.05-0.78-0.09c-0.48-0.35-0.91-0.76-1.31-1.19 c-0.09-0.09-0.04-0.49,0.06-0.54c0.87-0.44,1.77-0.84,2.85-1.34c0.52,0.03,1.29-0.07,1.93,0.17c0.53,0.2,0.9,0.8,1.33,1.23 C153.81,156.57,153.71,156.8,153.2,156.93L153.2,156.93z M161.11,156.14c-0.07,0.07-0.18,0.18-0.17,0.26 c0.05,0.27,0.14,0.53,0.21,0.8c0.26-0.08,0.54-0.11,0.77-0.24c0.15-0.08,0.21-0.32,0.34-0.45c0.32-0.3,0.67-0.4,1.02-0.06 c0.79,0.77,1.59,1.53,2.33,2.34c0.2,0.22,0.37,0.64,0.3,0.91c-0.26,1.07-0.6,2.12-0.96,3.16c-0.08,0.24-0.35,0.51-0.6,0.59 c-1.29,0.43-2.61,0.81-3.91,1.2c-0.44,0.13-0.71-0.07-0.59-0.5c0.25-0.92,0.51-1.83,0.82-2.74c0.2-0.59,0.13-1.03-0.41-1.36 c-0.36-0.22-0.41-0.46-0.22-0.79c0.19-0.33,0.42-0.65,0.54-1.01c0.06-0.17,0-0.54-0.12-0.59c-0.18-0.08-0.49-0.03-0.68,0.07 c-0.17,0.09-0.23,0.35-0.38,0.5c-0.32,0.33-0.69,0.44-1.07,0.08c-0.8-0.76-1.59-1.52-2.39-2.27c-0.45-0.43-0.44-0.7,0.14-0.93 c0.69-0.27,1.42-0.47,2.13-0.71c0,0.01,0.01,0.02,0.01,0.03c0.5-0.13,0.99-0.27,1.49-0.38c0.68-0.16,1.49,0.15,1.83,0.71 C161.92,155.38,161.49,155.76,161.11,156.14L161.11,156.14z M168.81,152.18c-0.19,0.12-0.36,0.29-0.57,0.35 c-1.28,0.35-2.57,0.68-3.86,0.99c-0.28,0.07-0.66,0.11-0.86-0.03c-0.51-0.36-0.95-0.82-1.4-1.26c-0.11-0.11-0.14-0.29-0.26-0.58 c0.61-0.18,1.15-0.37,1.71-0.51c0.5-0.12,1.06-0.1,1.52-0.3c1.51-0.65,1.87-0.61,3.04,0.54c0.09,0.09,0.2,0.16,0.28,0.26 C168.57,151.81,168.69,152,168.81,152.18L168.81,152.18z M176.81,151.44c-0.07,0.45,0.14,0.6,0.62,0.52c0.25-0.04,0.6,0,0.78,0.15 c0.88,0.73,1.73,1.49,2.55,2.28c0.17,0.17,0.25,0.55,0.2,0.79c-0.2,0.99-0.44,1.99-0.74,2.96c-0.14,0.45-0.19,1.04-0.83,1.19 c-0.73,0.18-1.45,0.37-2.17,0.56c0,0,0,0,0,0c-0.58,0.15-1.16,0.32-1.74,0.44c-0.21,0.04-0.53,0.06-0.64-0.06 c-0.1-0.11-0.03-0.42,0.03-0.63c0.24-0.86,0.56-1.7,0.71-2.57c0.07-0.4-0.05-1.01-0.32-1.26c-0.44-0.39-0.62-0.62-0.24-1.14 c0.11-0.14,0.06-0.52-0.07-0.67c-0.09-0.1-0.43-0.01-0.65,0.01c-0.24,0.01-0.55,0.13-0.7,0.02c-0.47-0.32-0.89-0.71-1.31-1.09 c-0.46-0.41-0.91-0.82-1.33-1.25c-0.18-0.18-0.38-0.43-0.38-0.64c0-0.15,0.32-0.37,0.54-0.43c1.27-0.39,2.55-0.75,3.83-1.09 c0.25-0.07,0.61-0.08,0.79,0.05C176.34,150.04,176.95,150.53,176.81,151.44L176.81,151.44z M183.36,148.14 c-1.13,0.37-2.28,0.72-3.5,1.11c-0.65,0.41-1.21,0.06-1.75-0.42c-0.19-0.17-0.4-0.31-0.61-0.46c-0.54-0.37-0.54-0.73,0.02-1.06 c0.2-0.12,0.42-0.27,0.64-0.29c0.89-0.07,1.59-0.56,2.32-1c0.59-0.36,1.32-0.29,1.82,0.17c0.42,0.38,0.82,0.78,1.24,1.17 C183.84,147.66,183.78,148,183.36,148.14L183.36,148.14z M191.85,146.59c0.06,0.14-0.29,0.46-0.46,0.69c-0.23,0.3-0.36,0.64,0,0.89 c0.34,0.25,0.67,0.09,0.86-0.26c0.26-0.48,0.59-0.61,1.01-0.21c0.89,0.85,1.78,1.69,2.65,2.57c0.12,0.12,0.16,0.39,0.11,0.57 c-0.27,1.04-0.6,2.08-0.88,3.12c-0.15,0.55-0.45,0.83-1.04,0.96c-1.29,0.29-2.55,0.7-3.82,1.05c-0.13,0.04-0.38,0.04-0.4,0 c-0.06-0.16-0.09-0.36-0.04-0.52c0.25-0.94,0.53-1.88,0.8-2.82c0.14-0.48,0.03-0.9-0.35-1.21c-0.54-0.43-0.52-0.82,0-1.23 c0.1-0.08,0.17-0.19,0.26-0.28c0.49-0.5,0.61-0.98,0.25-1.24c-0.57-0.41-0.76,0.11-1.03,0.46c-0.62,0.83-0.98,0.87-1.64,0.25 c-0.76-0.71-1.53-1.4-2.3-2.1c-0.36-0.32-0.33-0.59,0.13-0.74c1.24-0.39,2.49-0.76,3.74-1.14c0-0.08,0.01-0.17,0.01-0.25 c0.46,0.13,0.97,0.16,1.35,0.4C191.41,145.78,191.68,146.2,191.85,146.59L191.85,146.59z M198.3,143.83 c-1.16,0.37-2.33,0.71-3.49,1.08c-0.62,0.2-1.12,0.1-1.55-0.41c-0.23-0.27-0.57-0.45-0.83-0.69c-0.15-0.15-0.25-0.35-0.37-0.53 c0.21-0.11,0.4-0.29,0.63-0.33c1.03-0.18,2.07-0.32,3.09-0.47c1.04-0.62,1.91-0.46,2.65,0.46 C198.76,143.35,198.74,143.69,198.3,143.83L198.3,143.83z M207.42,143.41c0.53-0.38,0.86-0.1,1.22,0.24c0.67,0.62,1.36,1.21,2,1.86 c0.21,0.21,0.44,0.6,0.39,0.85c-0.25,1.18-0.57,2.34-0.92,3.5c-0.06,0.2-0.32,0.39-0.53,0.48c-0.29,0.13-0.63,0.15-0.93,0.24 c-0.89,0.27-1.77,0.56-2.67,0.83c-0.31,0.09-0.63,0.13-0.95,0.19c-0.01-0.34-0.08-0.69-0.01-1.02c0.21-0.95,0.49-1.88,0.7-2.83 c0.03-0.14-0.08-0.4-0.2-0.49c-0.65-0.48-0.86-0.95-0.22-1.63c0.11-0.12-0.11-0.54-0.18-0.82c-0.23,0.1-0.47,0.18-0.67,0.32 c-0.11,0.07-0.15,0.33-0.25,0.35c-0.23,0.05-0.57,0.1-0.7-0.02c-0.87-0.8-1.7-1.64-2.53-2.48c-0.15-0.15-0.27-0.35-0.4-0.53 c0.2-0.14,0.37-0.35,0.59-0.42c0.65-0.2,1.32-0.36,1.99-0.53c-0.01-0.03-0.01-0.06-0.02-0.09c0.64-0.17,1.3-0.3,1.93-0.51 c0.91-0.29,1.13,0.6,1.67,0.93c0.1,0.06-0.11,0.58-0.11,0.88c0,0.28,0.08,0.55,0.13,0.82 C206.98,143.51,207.25,143.53,207.42,143.41L207.42,143.41z M213.31,139.58c-1.09,0.3-2.22,0.52-3.28,0.9 c-0.98,0.35-1.65-0.02-2.28-0.66c-0.25-0.25-0.21-0.45,0.13-0.56c0.54-0.17,1.07-0.35,1.61-0.5c0.92-0.25,1.85-0.48,2.61-0.68 c0.79-0.22,1.11,0.19,1.46,0.57C214.06,139.19,214.01,139.39,213.31,139.58L213.31,139.58z M221.59,139.06 c0.29-0.02,0.58-0.05,0.88-0.07c0.27-0.01,0.63-0.12,0.79,0.01c0.87,0.74,1.69,1.52,2.51,2.32c0.33,0.32,0.32,0.72,0.16,1.18 c-0.23,0.63-0.3,1.31-0.53,1.94c-0.21,0.58-0.39,1.41-0.82,1.61c-1.29,0.6-2.7,0.95-4.07,1.38c-0.47,0.15-0.75-0.09-0.63-0.56 c0.27-1.04,0.58-2.07,0.92-3.09c0.15-0.46,0.14-0.77-0.34-0.99c-0.71-0.33-0.76-0.6-0.32-1.27c0.08-0.12,0.17-0.37,0.11-0.44 c-0.1-0.12-0.31-0.19-0.48-0.19c-0.16-0.01-0.33,0.08-0.49,0.15c-0.45,0.2-0.76,0.1-1.11-0.28c-0.69-0.75-1.48-1.42-2.22-2.13 c-0.15-0.15-0.36-0.39-0.33-0.54c0.03-0.17,0.3-0.35,0.5-0.41c0.68-0.21,1.37-0.37,2.05-0.54c0-0.01,0-0.02-0.01-0.03 c0.35-0.09,0.72-0.15,1.06-0.28c0.87-0.35,1.63-0.47,2.28,0.45c0.26,0.36,0.4,0.58,0.2,1 C221.58,138.49,221.62,138.79,221.59,139.06L221.59,139.06z M228.13,135.19c-1.03,0.27-2.07,0.54-3.1,0.8c0,0.01,0,0.01,0.01,0.02 c-0.31,0.08-0.62,0.19-0.93,0.23c-0.49,0.08-1.13-0.4-1.12-0.9c0-0.21,0.27-0.56,0.47-0.61c0.77-0.19,1.58-0.25,2.35-0.44 c0.29-0.07,0.56-0.34,0.78-0.57c0.05-0.05-0.17-0.34-0.25-0.53c-0.07-0.16-0.11-0.33-0.17-0.49c0.21-0.03,0.52-0.15,0.62-0.06 c0.6,0.53,1.19,1.08,1.7,1.68C228.8,134.7,228.61,135.06,228.13,135.19L228.13,135.19z M230.92,136.69 c0.97,0.81,1.9,1.67,2.81,2.53c0.14,0.13,0.2,0.44,0.15,0.62c-0.27,1.02-0.56,2.04-0.9,3.04c-0.08,0.23-0.35,0.58-0.51,0.57 c-0.72-0.04-1.42-0.23-2.14-0.29c-0.26-0.02-0.55,0.17-0.82,0.27c0.12,0.21,0.19,0.55,0.38,0.62c0.58,0.24,1.2,0.42,1.82,0.56 c0.55,0.12,0.79,0.47,0.6,1.02c-0.08,0.24-0.21,0.48-0.23,0.72c-0.04,0.43-0.26,0.65-0.66,0.75c-0.64,0.16-1.29,0.33-1.93,0.5 c0,0,0,0,0-0.01c-0.62,0.16-1.24,0.34-1.87,0.47c-0.23,0.05-0.59,0.08-0.69-0.04c-0.12-0.14-0.06-0.47,0-0.7 c0.25-0.96,0.57-1.89,0.77-2.86c0.09-0.44,0.14-0.74,0.68-0.81c0.41-0.06,0.59-0.39,0.29-0.75c-0.38-0.46-0.35-0.9-0.09-1.41 c0.09-0.17,0.06-0.53-0.06-0.65c-0.78-0.78-1.61-1.51-2.4-2.28c-0.18-0.17-0.27-0.44-0.4-0.66c0.21-0.12,0.42-0.28,0.64-0.35 c1.21-0.36,2.42-0.73,3.65-1.03C230.28,136.45,230.71,136.51,230.92,136.69L230.92,136.69z M239.62,131.71 c-0.83,0.21-1.3,0.1-1.39-0.32c-0.09-0.43,0.29-0.77,1.1-0.91c0.39-0.07,0.68-0.17,0.77-0.62c0.07-0.35,0.34-0.36,0.58-0.14 c0.48,0.42,0.91,0.22,1.33-0.08c0.3-0.22,0.54-0.6,0.97-0.18c0.27,0.26,0.57,0.49,0.98,0.84c-0.22,0.18-0.37,0.39-0.56,0.45 C242.14,131.07,240.88,131.38,239.62,131.71L239.62,131.71z M240.81,138.54c-0.1,0.2-0.12,0.45-0.18,0.67 c-0.24,0.77-0.46,1.54-0.74,2.3c-0.06,0.16-0.29,0.32-0.47,0.37c-1.33,0.4-2.67,0.77-4,1.14c-0.43,0.12-0.68-0.11-0.56-0.54 c0.09-0.3,0.21-0.6,0.3-0.9c0.2-0.69,0.41-1.37,0.59-2.06c0.12-0.48,0.08-0.94-0.47-1.17c-0.38-0.16-0.59-0.39-0.32-0.78 c0.23-0.32,0.43-0.69,0.07-0.94c-0.21-0.14-0.61,0.01-0.93,0c-0.27-0.01-0.64,0.04-0.81-0.11c-0.82-0.71-1.61-1.47-2.38-2.25 c-0.15-0.15-0.16-0.43-0.24-0.65c0.22-0.03,0.48-0.15,0.67-0.08c0.42,0.16,0.72,0.08,1.05-0.2c0.35-0.28,0.75-0.52,1.16-0.7 c0.49-0.21,1.01-0.34,1.53-0.46c0.21-0.05,0.5-0.05,0.65,0.06c0.6,0.42,1.24,0.82,1.11,1.76c-0.06,0.4,0.18,0.76,0.94,0.44 c0.12,0.04,0.45,0.07,0.65,0.25c0.73,0.64,1.45,1.3,2.09,2.02C240.98,137.21,241.16,137.85,240.81,138.54L240.81,138.54z"></path> <path class="st0" d="M108.64,32.87c0-2.46-0.12-4.67-0.47-6.59c-4.1,0.56-8.21,1.11-12.31,1.91C75.57,32.1,55.52,39.01,33.94,48.92 l10.32,11.26c-8.79,22.45-18.81,67.52-21.86,90.85c7.51-2.39,18.06-6.53,25.21-9.67c1.52-22.93,10.02-67.23,19.17-88.81 c5.98-2.44,14.31-5.22,19.35-6.55v8.91c-5.51,6.46-17.12,15.73-25.68,21.84l12.66,6.7c12.31-7.3,24.74-18.73,32.83-27.91 C107.47,49.28,108.64,40.26,108.64,32.87L108.64,32.87z"></path> <g> <defs> <rect id="SVGID_1_" width="340.16" height="226.77"></rect> </defs> <clipPath id="SVGID_00000132803094691818758150000013627637004227451526_"> <use xlink:href="#SVGID_1_" style="overflow:visible;"></use> </clipPath> <path style="clip-path:url(#SVGID_00000132803094691818758150000013627637004227451526_);fill:none;stroke:#FF8F00;stroke-width:15.2764;stroke-linejoin:round;" d=" M108.64,32.87c0-2.46-0.12-4.67-0.47-6.59c-4.1,0.56-8.21,1.11-12.31,1.91C75.57,32.1,55.52,39.01,33.94,48.92l10.32,11.26 c-8.79,22.45-18.81,67.52-21.86,90.85c7.51-2.39,18.06-6.53,25.21-9.67c1.52-22.93,10.02-67.23,19.17-88.81 c5.98-2.44,14.31-5.22,19.35-6.55v8.91c-5.51,6.46-17.12,15.73-25.68,21.84l12.66,6.7c12.31-7.3,24.74-18.73,32.83-27.91 C107.47,49.28,108.64,40.26,108.64,32.87L108.64,32.87z"></path> </g> <path class="st0" d="M147.08,56.93c0-9.07-6.7-14.33-17.93-12.17c-16.7,3.22-29.74,20.5-29.74,36.77 c0,10.22,6.62,17.95,18.86,15.59c13.32-2.57,23.11-13.46,28.73-27.65l-2.23-2.38C146.36,63.33,147.08,59.95,147.08,56.93 L147.08,56.93z M134.7,63.28c0,8.35-6.05,19.45-15.19,21.22c-4.25,0.82-5.83-1.47-5.83-4.71c0-1.22,0.22-2.63,0.65-4.08l-2.45-0.39 c3.38-10.52,8.42-17.1,16.49-18.66C132.97,55.76,134.7,59.17,134.7,63.28L134.7,63.28z"></path> <path class="st2" d="M147.08,56.93c0-9.07-6.7-14.33-17.93-12.17c-16.7,3.22-29.74,20.5-29.74,36.77 c0,10.22,6.62,17.95,18.86,15.59c13.32-2.57,23.11-13.46,28.73-27.65l-2.23-2.38C146.36,63.33,147.08,59.95,147.08,56.93 L147.08,56.93z M134.7,63.28c0,8.35-6.05,19.45-15.19,21.22c-4.25,0.82-5.83-1.47-5.83-4.71c0-1.22,0.22-2.63,0.65-4.08l-2.45-0.39 c3.38-10.52,8.42-17.1,16.49-18.66C132.97,55.76,134.7,59.17,134.7,63.28L134.7,63.28z"></path> <path class="st0" d="M177.53,35.36c-4.1,0.94-11.3,3.12-15.84,5.07c-4.61,14.57-9.86,33.87-14.26,51.06l13.9-4.05 C165.29,71.7,171.77,51.73,177.53,35.36L177.53,35.36z"></path> <g> <defs> <rect id="SVGID_00000066516309486167286500000004963379077178608025_" width="340.16" height="226.77"></rect> </defs> <clipPath id="SVGID_00000063627253871007725160000011462742346478261411_"> <use xlink:href="#SVGID_00000066516309486167286500000004963379077178608025_" style="overflow:visible;"></use> </clipPath> <path style="clip-path:url(#SVGID_00000063627253871007725160000011462742346478261411_);fill:none;stroke:#FF8F00;stroke-width:15.2764;stroke-linejoin:round;" d=" M177.53,35.36c-4.1,0.94-11.3,3.12-15.84,5.07c-4.61,14.57-9.86,33.87-14.26,51.06l13.9-4.05 C165.29,71.7,171.77,51.73,177.53,35.36L177.53,35.36z"></path> </g> <path class="st0" d="M212.89,29.26l-5.76,1.61l-1.22-1.28c-8.35,2.26-26.86,11.52-26.86,22.24c0,5.76,5.98,9.58,13.97,8.54 c3.96-0.48,6.55,0.18,6.55,1.76c0,6.26-24.34,12.54-28.15,13.35l6.84,10.7c6.55-1.84,20.59-5.99,28.44-13.77l-1.01-2.54 c4.9-4.33,7.06-8.56,7.06-12.02c0-5.9-6.34-9.58-16.7-8.15c-1.51,0.22-2.3-0.49-2.3-1.28c0-4.9,22.1-9.16,24.98-9.72L212.89,29.26 L212.89,29.26z"></path> <g> <defs> <rect id="SVGID_00000176033709093016931090000007827621631306699664_" width="340.16" height="226.77"></rect> </defs> <clipPath id="SVGID_00000148644961254323904270000012315006221708868507_"> <use xlink:href="#SVGID_00000176033709093016931090000007827621631306699664_" style="overflow:visible;"></use> </clipPath> <path style="clip-path:url(#SVGID_00000148644961254323904270000012315006221708868507_);fill:none;stroke:#FF8F00;stroke-width:15.2764;stroke-linejoin:round;" d=" M212.89,29.26l-5.76,1.61l-1.22-1.28c-8.35,2.26-26.86,11.52-26.86,22.24c0,5.76,5.98,9.58,13.97,8.54 c3.96-0.48,6.55,0.18,6.55,1.76c0,6.26-24.34,12.54-28.15,13.35l6.84,10.7c6.55-1.84,20.59-5.99,28.44-13.77l-1.01-2.54 c4.9-4.33,7.06-8.56,7.06-12.02c0-5.9-6.34-9.58-16.7-8.15c-1.51,0.22-2.3-0.49-2.3-1.28c0-4.9,22.1-9.16,24.98-9.72L212.89,29.26 L212.89,29.26z"></path> </g> <path class="st0" d="M139.07,112.18c-0.22-3.34-0.86-9.05-1.58-11.93c-1.8,0.27-3.67,0.64-5.62,1.01 c-3.82,0.74-7.85,1.66-11.66,2.68l-1.15,2.24c-10.73,2.57-21.24,5.39-33.26,9.87l7.56,8.33c4.25-1.61,8.86-3.22,13.61-4.71 c-6.05,13.26-12.31,30.81-13.61,47.05c4.61-1.46,10.8-3.95,15.19-5.88c0.79-12.39,5.47-27.41,10.8-40.6l-9.22-1.46 c7.42-2.15,14.98-4.04,21.67-5.33C134.39,112.94,136.83,112.47,139.07,112.18L139.07,112.18z M158.72,95.94 c-4.1,0.94-11.3,3.12-15.84,5.07c-4.61,14.57-9.86,33.87-14.26,51.06l13.9-4.05C146.48,132.28,152.96,112.31,158.72,95.94 L158.72,95.94z M204.15,98.62c-0.36-3.31-0.94-7.96-1.73-10.9c-5.98,1.15-12.74,2.67-18.58,4.3l-1.15,2.24 c-6.7,2.08-14.18,4.32-22.9,7.66l5.18,7.5c-2.45,5.73-6.98,17.33-6.98,23.23c0,8.21,5.69,12.73,16.13,10.71 c5.76-1.11,13.1-4.18,19.01-8.92l1.44-10.21c-6.12,2.98-13.32,6.82-18.14,7.75c-3.24,0.63-5.4-0.04-5.4-3.13 c0-2.59,1.73-7.32,2.52-9.92l2.88,3.62l13.03-3.09l7.13-11.96c-6.77,1.81-14.69,4.49-21.6,6.9c1.01-2.93,2.52-6.68,3.82-9.88 C186.15,102.52,196.59,100.08,204.15,98.62L204.15,98.62z M238.64,117.67c-7.49,1.59-16.42,3.81-23.33,5.94 c3.31-11.65,8.35-27.1,13.68-41.23c-5.47,1.42-12.46,3.91-17.42,5.95c-2.38,5.57-4.75,12.22-6.41,18.16l3.24,0.74 c-3.31,10-6.48,21.05-8.93,31.17c8.21-2.45,18.58-4.95,27.58-6.69c2.88-0.56,5.62-1.01,8.06-1.41L238.64,117.67L238.64,117.67z M285.8,83.88c-0.22-3.34-0.86-9.05-1.58-11.93c-1.8,0.28-3.67,0.64-5.62,1.01c-3.82,0.74-7.85,1.66-11.66,2.68l-1.15,2.24 c-10.73,2.57-21.24,5.39-33.26,9.87l7.56,8.33c4.25-1.61,8.86-3.22,13.61-4.71c-6.05,13.26-12.31,30.81-13.61,47.05 c4.61-1.47,10.8-3.96,15.19-5.88c0.79-12.39,5.47-27.41,10.8-40.6l-9.22-1.46c7.42-2.15,14.98-4.04,21.67-5.33 C281.12,84.64,283.57,84.17,285.8,83.88L285.8,83.88z M317.05,109.96c-4.32-5.29-2.23-32.04-3.67-44.15l-13.75,3.66l0.14,4.22 c-8.71,8.02-18.43,18.1-25.34,29.01l1.51,2.23c-2.88,3.94-6.7,9.86-9.22,14.38l11.09,4.85c3.53-10.18,10.37-17.19,22.75-20.95 c0.36,5.76,1.08,11.46,2.52,16.22L317.05,109.96L317.05,109.96z M300.34,97.13c-3.6,0.77-9.5,2.34-12.89,3.28 c2.81-4.72,8.35-12.05,12.89-17.03c-0.07,2.17-0.07,4.48-0.07,6.78C300.27,92.46,300.27,94.84,300.34,97.13L300.34,97.13z M312.08,54.26l-3.17,9.68l11.52-3.09c1.15-2.96,2.45-6.59,3.46-9.81L312.08,54.26L312.08,54.26z M295.74,58.06l-3.17,9.68 l11.52-3.01c1.15-2.96,2.45-6.59,3.46-9.81L295.74,58.06L295.74,58.06z"></path> <g> <defs> <rect id="SVGID_00000045608021876146429220000001070296793809756320_" width="340.16" height="226.77"></rect> </defs> <clipPath id="SVGID_00000000919567550296522900000000878690049838104766_"> <use xlink:href="#SVGID_00000045608021876146429220000001070296793809756320_" style="overflow:visible;"></use> </clipPath> <path style="clip-path:url(#SVGID_00000000919567550296522900000000878690049838104766_);fill:none;stroke:#FF8F00;stroke-width:15.2764;stroke-linejoin:round;" d=" M139.07,112.18c-0.22-3.34-0.86-9.05-1.58-11.93c-1.8,0.28-3.67,0.64-5.62,1.01c-3.82,0.74-7.85,1.66-11.66,2.68l-1.15,2.24 c-10.73,2.57-21.24,5.39-33.26,9.87l7.56,8.33c4.25-1.61,8.86-3.22,13.61-4.71c-6.05,13.26-12.31,30.81-13.61,47.05 c4.61-1.46,10.8-3.95,15.19-5.88c0.79-12.39,5.47-27.41,10.8-40.6l-9.22-1.46c7.42-2.15,14.98-4.04,21.67-5.33 C134.39,112.94,136.83,112.47,139.07,112.18L139.07,112.18z M158.72,95.94c-4.1,0.94-11.3,3.12-15.84,5.07 c-4.61,14.57-9.86,33.87-14.26,51.06l13.9-4.05C146.48,132.28,152.96,112.31,158.72,95.94L158.72,95.94z M204.15,98.62 c-0.36-3.31-0.94-7.96-1.73-10.9c-5.98,1.15-12.74,2.67-18.58,4.3l-1.15,2.24c-6.7,2.08-14.18,4.32-22.9,7.66l5.18,7.5 c-2.45,5.73-6.98,17.33-6.98,23.24c0,8.21,5.69,12.73,16.13,10.71c5.76-1.11,13.1-4.18,19.01-8.92l1.44-10.21 c-6.12,2.98-13.32,6.82-18.14,7.75c-3.24,0.63-5.4-0.04-5.4-3.13c0-2.59,1.73-7.32,2.52-9.92l2.88,3.62l13.03-3.09l7.13-11.96 c-6.77,1.81-14.69,4.49-21.6,6.9c1.01-2.93,2.52-6.68,3.82-9.88C186.15,102.52,196.59,100.08,204.15,98.62L204.15,98.62z M238.64,117.67c-7.49,1.59-16.42,3.81-23.33,5.94c3.31-11.66,8.35-27.1,13.68-41.23c-5.47,1.42-12.46,3.91-17.42,5.95 c-2.38,5.57-4.75,12.22-6.41,18.16l3.24,0.74c-3.31,10-6.48,21.05-8.93,31.17c8.21-2.45,18.58-4.95,27.58-6.69 c2.88-0.56,5.62-1.01,8.06-1.41L238.64,117.67L238.64,117.67z M285.8,83.88c-0.22-3.34-0.86-9.05-1.58-11.93 c-1.8,0.28-3.67,0.64-5.62,1.01c-3.82,0.74-7.85,1.66-11.66,2.68l-1.15,2.24c-10.73,2.57-21.24,5.39-33.26,9.87l7.56,8.33 c4.25-1.61,8.86-3.22,13.61-4.71c-6.05,13.26-12.31,30.81-13.61,47.05c4.61-1.47,10.8-3.96,15.19-5.88 c0.79-12.39,5.47-27.41,10.8-40.6l-9.22-1.46c7.42-2.15,14.98-4.04,21.67-5.33C281.12,84.64,283.57,84.17,285.8,83.88L285.8,83.88 z M317.05,109.96c-4.32-5.29-2.23-32.04-3.67-44.15l-13.75,3.66l0.14,4.22c-8.71,8.02-18.43,18.1-25.34,29.01l1.51,2.23 c-2.88,3.94-6.7,9.86-9.22,14.38l11.09,4.85c3.53-10.18,10.37-17.19,22.75-20.95c0.36,5.76,1.08,11.46,2.52,16.22L317.05,109.96 L317.05,109.96z M300.34,97.13c-3.6,0.77-9.5,2.34-12.89,3.28c2.81-4.72,8.35-12.05,12.89-17.03c-0.07,2.17-0.07,4.48-0.07,6.78 C300.27,92.46,300.27,94.84,300.34,97.13L300.34,97.13z M312.08,54.26l-3.17,9.68l11.52-3.09c1.15-2.96,2.45-6.59,3.46-9.81 L312.08,54.26L312.08,54.26z M295.74,58.06l-3.17,9.68l11.52-3.01c1.15-2.96,2.45-6.59,3.46-9.81L295.74,58.06L295.74,58.06z"></path> </g> <path d="M108.64,32.87c0-2.46-0.12-4.67-0.47-6.59c-4.1,0.56-8.21,1.11-12.31,1.91C75.57,32.1,55.52,39.01,33.94,48.92l10.32,11.26 c-8.79,22.45-18.81,67.52-21.86,90.85c7.51-2.39,18.06-6.53,25.21-9.67c1.52-22.93,10.02-67.23,19.17-88.81 c5.98-2.44,14.31-5.22,19.35-6.55v8.91c-5.51,6.46-17.12,15.73-25.68,21.84l12.66,6.7c12.31-7.3,24.74-18.73,32.83-27.91 C107.47,49.28,108.64,40.26,108.64,32.87L108.64,32.87z"></path> <path class="st6" d="M108.64,32.87c0-2.46-0.12-4.67-0.47-6.59c-4.1,0.56-8.21,1.11-12.31,1.91C75.57,32.1,55.52,39.01,33.94,48.92 l10.32,11.26c-8.79,22.45-18.81,67.52-21.86,90.85c7.51-2.39,18.06-6.53,25.21-9.67c1.52-22.93,10.02-67.23,19.17-88.81 c5.98-2.44,14.31-5.22,19.35-6.55v8.91c-5.51,6.46-17.12,15.73-25.68,21.84l12.66,6.7c12.31-7.3,24.74-18.73,32.83-27.91 C107.47,49.28,108.64,40.26,108.64,32.87L108.64,32.87z"></path> <path d="M147.08,56.93c0-9.07-6.7-14.33-17.93-12.17c-16.7,3.22-29.74,20.5-29.74,36.77c0,10.22,6.62,17.95,18.86,15.59 c13.32-2.57,23.11-13.46,28.73-27.65l-2.23-2.38C146.36,63.33,147.08,59.95,147.08,56.93L147.08,56.93z M134.7,63.28 c0,8.35-6.05,19.45-15.19,21.22c-4.25,0.82-5.83-1.47-5.83-4.71c0-1.22,0.22-2.63,0.65-4.08l-2.45-0.39 c3.38-10.52,8.42-17.1,16.49-18.66C132.97,55.76,134.7,59.17,134.7,63.28L134.7,63.28z"></path> <path class="st6" d="M147.08,56.93c0-9.07-6.7-14.33-17.93-12.17c-16.7,3.22-29.74,20.5-29.74,36.77 c0,10.22,6.62,17.95,18.86,15.59c13.32-2.57,23.11-13.46,28.73-27.65l-2.23-2.38C146.36,63.33,147.08,59.95,147.08,56.93 L147.08,56.93z M134.7,63.28c0,8.35-6.05,19.45-15.19,21.22c-4.25,0.82-5.83-1.47-5.83-4.71c0-1.22,0.22-2.63,0.65-4.08l-2.45-0.39 c3.38-10.52,8.42-17.1,16.49-18.66C132.97,55.76,134.7,59.17,134.7,63.28L134.7,63.28z"></path> <path d="M177.53,35.36c-4.1,0.94-11.3,3.12-15.84,5.07c-4.61,14.57-9.86,33.87-14.26,51.06l13.9-4.05 C165.29,71.7,171.77,51.73,177.53,35.36L177.53,35.36z"></path> <path class="st6" d="M177.53,35.36c-4.1,0.94-11.3,3.12-15.84,5.07c-4.61,14.57-9.86,33.87-14.26,51.06l13.9-4.05 C165.29,71.7,171.77,51.73,177.53,35.36L177.53,35.36z"></path> <path d="M212.89,29.26l-5.76,1.61l-1.22-1.28c-8.35,2.26-26.86,11.52-26.86,22.24c0,5.76,5.98,9.58,13.97,8.54 c3.96-0.48,6.55,0.18,6.55,1.76c0,6.26-24.34,12.54-28.15,13.35l6.84,10.7c6.55-1.84,20.59-5.99,28.44-13.77l-1.01-2.54 c4.9-4.33,7.06-8.56,7.06-12.02c0-5.9-6.34-9.58-16.7-8.15c-1.51,0.22-2.3-0.49-2.3-1.28c0-4.9,22.1-9.16,24.98-9.72L212.89,29.26 L212.89,29.26z"></path> <path class="st6" d="M212.89,29.26l-5.76,1.61l-1.22-1.28c-8.35,2.26-26.86,11.52-26.86,22.24c0,5.76,5.98,9.58,13.97,8.54 c3.96-0.48,6.55,0.18,6.55,1.76c0,6.26-24.34,12.54-28.15,13.35l6.84,10.7c6.55-1.84,20.59-5.99,28.44-13.77l-1.01-2.54 c4.9-4.33,7.06-8.56,7.06-12.02c0-5.9-6.34-9.58-16.7-8.15c-1.51,0.22-2.3-0.49-2.3-1.28c0-4.9,22.1-9.16,24.98-9.72L212.89,29.26 L212.89,29.26z"></path> <path d="M139.07,112.18c-0.22-3.34-0.86-9.05-1.58-11.93c-1.8,0.27-3.67,0.64-5.62,1.01c-3.82,0.74-7.85,1.66-11.66,2.68 l-1.15,2.24c-10.73,2.57-21.24,5.39-33.26,9.87l7.56,8.33c4.25-1.61,8.86-3.22,13.61-4.71c-6.05,13.26-12.31,30.81-13.61,47.05 c4.61-1.46,10.8-3.95,15.19-5.88c0.79-12.39,5.47-27.41,10.8-40.6l-9.22-1.46c7.42-2.15,14.98-4.04,21.67-5.33 C134.39,112.94,136.83,112.47,139.07,112.18L139.07,112.18z M158.72,95.94c-4.1,0.94-11.3,3.12-15.84,5.07 c-4.61,14.57-9.86,33.87-14.26,51.06l13.9-4.05C146.48,132.28,152.96,112.31,158.72,95.94L158.72,95.94z M204.15,98.62 c-0.36-3.31-0.94-7.96-1.73-10.9c-5.98,1.15-12.74,2.67-18.58,4.3l-1.15,2.24c-6.7,2.08-14.18,4.32-22.9,7.66l5.18,7.5 c-2.45,5.73-6.98,17.33-6.98,23.23c0,8.21,5.69,12.73,16.13,10.71c5.76-1.11,13.1-4.18,19.01-8.92l1.44-10.21 c-6.12,2.98-13.32,6.82-18.14,7.75c-3.24,0.63-5.4-0.04-5.4-3.13c0-2.59,1.73-7.32,2.52-9.92l2.88,3.62l13.03-3.09l7.13-11.96 c-6.77,1.81-14.69,4.49-21.6,6.9c1.01-2.93,2.52-6.68,3.82-9.88C186.15,102.52,196.59,100.08,204.15,98.62L204.15,98.62z M238.64,117.67c-7.49,1.59-16.42,3.81-23.33,5.94c3.31-11.65,8.35-27.1,13.68-41.23c-5.47,1.42-12.46,3.91-17.42,5.95 c-2.38,5.57-4.75,12.22-6.41,18.16l3.24,0.74c-3.31,10-6.48,21.05-8.93,31.17c8.21-2.45,18.58-4.95,27.58-6.69 c2.88-0.56,5.62-1.01,8.06-1.41L238.64,117.67L238.64,117.67z M285.8,83.88c-0.22-3.34-0.86-9.05-1.58-11.93 c-1.8,0.28-3.67,0.64-5.62,1.01c-3.82,0.74-7.85,1.66-11.66,2.68l-1.15,2.24c-10.73,2.57-21.24,5.39-33.26,9.87l7.56,8.33 c4.25-1.61,8.86-3.22,13.61-4.71c-6.05,13.26-12.31,30.81-13.61,47.05c4.61-1.47,10.8-3.96,15.19-5.88 c0.79-12.39,5.47-27.41,10.8-40.6l-9.22-1.46c7.42-2.15,14.98-4.04,21.67-5.33C281.12,84.64,283.57,84.17,285.8,83.88L285.8,83.88z M317.05,109.96c-4.32-5.29-2.23-32.04-3.67-44.15l-13.75,3.66l0.14,4.22c-8.71,8.02-18.43,18.1-25.34,29.01l1.51,2.23 c-2.88,3.94-6.7,9.86-9.22,14.38l11.09,4.85c3.53-10.18,10.37-17.19,22.75-20.95c0.36,5.76,1.08,11.46,2.52,16.22L317.05,109.96 L317.05,109.96z M300.34,97.13c-3.6,0.77-9.5,2.34-12.89,3.28c2.81-4.72,8.35-12.05,12.89-17.03c-0.07,2.17-0.07,4.48-0.07,6.78 C300.27,92.46,300.27,94.84,300.34,97.13L300.34,97.13z M312.08,54.26l-3.17,9.68l11.52-3.09c1.15-2.96,2.45-6.59,3.46-9.81 L312.08,54.26L312.08,54.26z M295.74,58.06l-3.17,9.68l11.52-3.01c1.15-2.96,2.45-6.59,3.46-9.81L295.74,58.06L295.74,58.06z"></path> <path class="st6" d="M139.07,112.18c-0.22-3.34-0.86-9.05-1.58-11.93c-1.8,0.28-3.67,0.64-5.62,1.01 c-3.82,0.74-7.85,1.66-11.66,2.68l-1.15,2.24c-10.73,2.57-21.24,5.39-33.26,9.87l7.56,8.33c4.25-1.61,8.86-3.22,13.61-4.71 c-6.05,13.26-12.31,30.81-13.61,47.05c4.61-1.46,10.8-3.95,15.19-5.88c0.79-12.39,5.47-27.41,10.8-40.6l-9.22-1.46 c7.42-2.15,14.98-4.04,21.67-5.33C134.39,112.94,136.83,112.47,139.07,112.18L139.07,112.18z M158.72,95.94 c-4.1,0.94-11.3,3.12-15.84,5.07c-4.61,14.57-9.86,33.87-14.26,51.06l13.9-4.05C146.48,132.28,152.96,112.31,158.72,95.94 L158.72,95.94z M204.15,98.62c-0.36-3.31-0.94-7.96-1.73-10.9c-5.98,1.15-12.74,2.67-18.58,4.3l-1.15,2.24 c-6.7,2.08-14.18,4.32-22.9,7.66l5.18,7.5c-2.45,5.73-6.98,17.33-6.98,23.24c0,8.21,5.69,12.73,16.13,10.71 c5.76-1.11,13.1-4.18,19.01-8.92l1.44-10.21c-6.12,2.98-13.32,6.82-18.14,7.75c-3.24,0.63-5.4-0.04-5.4-3.13 c0-2.59,1.73-7.32,2.52-9.92l2.88,3.62l13.03-3.09l7.13-11.96c-6.77,1.81-14.69,4.49-21.6,6.9c1.01-2.93,2.52-6.68,3.82-9.88 C186.15,102.52,196.59,100.08,204.15,98.62L204.15,98.62z M238.64,117.67c-7.49,1.59-16.42,3.81-23.33,5.94 c3.31-11.66,8.35-27.1,13.68-41.23c-5.47,1.42-12.46,3.91-17.42,5.95c-2.38,5.57-4.75,12.22-6.41,18.16l3.24,0.74 c-3.31,10-6.48,21.05-8.93,31.17c8.21-2.45,18.58-4.95,27.58-6.69c2.88-0.56,5.62-1.01,8.06-1.41L238.64,117.67L238.64,117.67z M285.8,83.88c-0.22-3.34-0.86-9.05-1.58-11.93c-1.8,0.28-3.67,0.64-5.62,1.01c-3.82,0.74-7.85,1.66-11.66,2.68l-1.15,2.24 c-10.73,2.57-21.24,5.39-33.26,9.87l7.56,8.33c4.25-1.61,8.86-3.22,13.61-4.71c-6.05,13.26-12.31,30.81-13.61,47.05 c4.61-1.47,10.8-3.96,15.19-5.88c0.79-12.39,5.47-27.41,10.8-40.6l-9.22-1.46c7.42-2.15,14.98-4.04,21.67-5.33 C281.12,84.64,283.57,84.17,285.8,83.88L285.8,83.88z M317.05,109.96c-4.32-5.29-2.23-32.04-3.67-44.15l-13.75,3.66l0.14,4.22 c-8.71,8.02-18.43,18.1-25.34,29.01l1.51,2.23c-2.88,3.94-6.7,9.86-9.22,14.38l11.09,4.85c3.53-10.18,10.37-17.19,22.75-20.95 c0.36,5.76,1.08,11.46,2.52,16.22L317.05,109.96L317.05,109.96z M300.34,97.13c-3.6,0.77-9.5,2.34-12.89,3.28 c2.81-4.72,8.35-12.05,12.89-17.03c-0.07,2.17-0.07,4.48-0.07,6.78C300.27,92.46,300.27,94.84,300.34,97.13L300.34,97.13z M312.08,54.26l-3.17,9.68l11.52-3.09c1.15-2.96,2.45-6.59,3.46-9.81L312.08,54.26L312.08,54.26z M295.74,58.06l-3.17,9.68 l11.52-3.01c1.15-2.96,2.45-6.59,3.46-9.81L295.74,58.06L295.74,58.06z"></path> <path d="M50.29,79.4c0.68,0.18,1.42-0.43,2.08-0.53c0.73-0.12,1.63,0.01,2.36,0.01c1.48,0,2.96,0.01,4.44,0 c1.5-0.01,2.55,0.08,3.02,1.69c0.33,1.13,0.35,3.4,0.01,4.53c-0.52-0.18-0.96-0.69-1.47-0.99c-0.57-0.34-0.98-0.32-1.57-0.52 c-1.01-0.35-2.46-1.04-3.56-1.15c-0.08-0.28-0.14-0.57-0.19-0.86c-1.8-0.21-3.51-0.78-5.14-1.65"></path> <path d="M36.71,73.13c0.53,0.42,1.01,0.3,1.57,0.52c0.95,0.38,0.92,0.13,1.42,1.19c0.28,0.58,0.46,0.75,0.67,1.42 c0.26,0.83,0.11,1.2,1.02,1.71c0.47,0.26,1.76,0.17,2.04,0.46c0.35,0.37,0.14,2-0.03,2.43c-0.36,0.91-1.68,1.67-1.9,2.64 c0.82-0.59,2.52-0.86,3.58-0.98c0.68-0.08,1.33,0.16,1.99-0.09c0.48-0.18,0.51-0.74,1.07-0.86c-0.88,1.26-0.02,2.48,0.47,3.7 c0.46,1.14,2.27,2.7,2.27,3.84c-0.22-0.25-1.45-0.66-1.73-0.72c-0.93-0.19-2.01,0.11-2.9-0.22c-1.07-0.39-1.42-0.9-2.73-0.94 c-0.99-0.03-2.11,0.18-3.05-0.09c0.18-2.03-2.01-0.43-2.7-0.03c-0.08,0.05-1.53,0.71-1.58,0.7c-0.8-0.13-0.44-0.92-0.63-1.52 c-0.86-2.7-3.59-2.32-5.97-2.18c0.46-0.65,0.89-0.24,1.4-0.54c0.76-0.45,0.82-0.62,1.16-1.45c0.47-1.17,0.63-3.21,2.37-2.64 c0.52,0.17,0.6,0.96,1.32,0.6c0.24-0.12,0.86-1.44,0.91-1.72c0-0.36-0.02-0.72-0.04-1.07c0.09-0.53,0.33-1.07,0.42-1.57 c0.13-0.76,0.32-1.46-0.17-2.09c0.46-0.37,0.51-1.31-0.04-1.49c0.17,0.33,0.46,0.47,0.85,0.44"></path> <path d="M51.86,67.38c-1.54,0-3.4-0.14-4.77,0.46c-0.54,0.24-0.86,0.46-0.99,1.11c-0.05,0.23,0.02,0.54,0.01,0.78 c-0.01,0.52-0.01,0.48-0.26,0.78c-0.29,0.37-0.82,0.59-0.99,1.1c-0.18,0.52-0.06,1.22-0.06,1.77c0,0.58,0.1,1.27,0.01,1.83 c-0.07,0.41-0.66,0.88-0.53,1.26c0.71,0.3,1.86-0.21,2.64-0.23c0.51-0.01,1.03,0.02,1.54,0.01c0.57-0.02,1.01-0.2,1.57-0.27 c0.56-0.07,1.05,0.13,1.57-0.18c0.85-0.5,0.82-1.56,1.03-2.43c0.16-0.66,0.52-1.04,0.54-1.76c0.02-0.53-0.29-1.65,0.21-1.97 c-0.28-0.36-0.13-0.76-0.26-1.19c-0.14-0.03-0.29-0.06-0.43-0.09c-0.03-0.24-0.06-0.46-0.08-0.7c-0.33-0.08-0.67-0.03-1.01-0.04"></path> <path d="M57.09,108.92c0.35-0.2,0.69-0.4,1.03-0.61c0.05-0.15,0.14-0.28,0.27-0.39c0.3-0.18,0.69-0.18,1.01-0.38 c0.24-0.15,0.28-0.37,0.56-0.47c0.22-0.08,0.82-0.02,1.06,0.01c1.47,0.19,2.67,1.15,4.14,1.36c0.03,0.14,0.06,0.29,0.1,0.43 c0.35,0.03,0.41,0.21,0.66,0.37c0.42,0.26,0.61,0.54,1.19,0.67c0.9,0.2,1.65,0.51,2.49,0.92c0.61,0.29,1.09,0.86,1.44,1.48 c0.19,0.35,0.14,0.61,0.43,0.87c0.29,0.25,0.59,0.35,0.87,0.65c0.41,0.43,0.34,0.35,0.51,0.96c0.08,0.31,0.69,1.1,0.5,1.47 c-0.26,0.48-1.37,0.21-1.91,0.3c-0.72,0.13-1.3,0.35-1.97,0.52c-0.55,0.14-1.21,0.59-1.88,0.48c-0.38-0.07-0.55-0.37-0.84-0.48 c-0.32-0.12-0.64-0.03-0.97-0.05c-0.75-0.03-1.91-0.19-2.57-0.58c-0.26-0.15-0.49-0.57-0.78-0.74c-0.3-0.17-0.51-0.14-0.86-0.3 c-0.13-0.12-0.23-0.27-0.31-0.43c-0.13-0.04-0.26-0.08-0.39-0.11c-0.27-0.18-0.62-0.3-0.86-0.46c-0.92-0.6-1.33-1.76-2.14-2.55 c-0.39-0.38-0.91-0.79-0.99-1.36c-0.12-0.85,0.99-1.21,0.8-1.84"></path> <path d="M67.54,88.54c1.13,0,2.26,0,3.4,0c0.43,0,1.19-0.15,1.58-0.01c0.4,0.14,0.5,0.55,0.98,0.59c0.03,0.14,0.07,0.28,0.1,0.42 c0.44,0.03,0.64,0.39,0.99,0.58c0.5,0.27,1.04,0.01,1.06,0.78c0.03,1.36-2.55,0.93-3.41,1.03c-0.73,0.09-1.37,0.48-2.09,0.54 c-0.64,0.06-1.51-0.34-1.98-0.78c-0.22-0.2-0.34-0.51-0.38-0.8c-0.05-0.36,0.22-0.64,0.23-0.84c0.01-0.61-0.85-1.02-0.1-1.46 c-0.21-0.08-0.42-0.09-0.64-0.05"></path> <path d="M63.1,85.93c-1.03-0.28-1.38,1.68-1.12,2.15c0.27,0.49,0.83,0.58,1.13,0.98c0.29,0.38,0.24,0.86,0.77,1.06 c1.25,0.46,0.79-1.92,0.8-2.62c0-0.56,0.13-1.09-0.26-1.51c-0.37-0.41-0.86-0.4-1.25-0.08c-0.02-0.08-0.04-0.15-0.06-0.23"></path> <path d="M65.97,83.58c-0.07,0.01-0.14,0.03-0.22,0.04c-0.07,0.22-0.18,1.08-0.06,1.28c0.22,0.38,0.85,0.47,1.29,0.55 c0.2,0.8-0.18,1.06,0.88,1c0.65-0.03,1.18-0.18,0.79-0.85c-0.36-0.63-1.03-0.41-1.64-0.65c-0.5-0.19-1.13-0.59-1.31-1.12"></path> <path d="M66.75,70.52c-0.44-0.07-1.21,0.3-1.58,0.52c-0.32,0.2-0.57,0.54-0.98,0.57c-0.03,0.14-0.07,0.28-0.1,0.42 c-0.14,0.04-0.28,0.07-0.43,0.09c-0.19,0.64,0.07,1.26-0.24,1.86c-0.35,0.69-0.63,0.88-0.59,1.76c0.04,0.86,0.43,0.89,0.8,1.56 c0.16,0.29-0.04,0.46,0.3,0.73c0.14,0.12,0.65,0.24,0.81,0.15c0.2-0.12,0.23-0.5,0.37-0.68c0.19-0.25,0.42-0.51,0.6-0.72 c0.44-0.5,0.93-1.05,1.37-1.58c0.2-0.24,0.48-0.37,0.71-0.56c0.28-0.23,0.44-0.6,0.72-0.81c0.26-0.2,0.45-0.15,0.61-0.43 c0.12-0.2,0-1.06-0.06-1.28c-0.14-0.03-0.29-0.06-0.43-0.09c-0.04-0.14-0.07-0.28-0.09-0.43c-0.31-0.09-0.63-0.05-0.94-0.1 c-0.21-0.04-0.51-0.21-0.8-0.25c-0.01-0.07-0.03-0.15-0.04-0.22"></path> <path d="M41.94,38.13c0.21,0.63,1.41,1.7,2.08,1.84c0.41,0.09,1.02,0.05,1.27-0.33c0.36-0.56-0.24-0.97-0.25-1.47 c-0.19-0.03-0.52,0.03-0.69-0.08c-0.24-0.16-0.27-0.62-0.54-0.82c0.07-0.08,0.12-0.34,0.18-0.42c-0.36,0.11-0.58,0.62-0.99,0.76 c-0.18,0.06-0.53,0.01-0.74,0.04c-0.22,0.04-0.5,0.22-0.8,0.24c-0.07,0.16-0.08,0.32-0.04,0.48"></path> <path d="M36.71,36.56c0,0.51-0.08,1.08,0.05,1.57c0.14,0.53,0.55,1.05,0.74,1.57c0.18,0.5,0.14,0.85,0.77,1.06 c0.37,0.13,1.04,0.02,1.26-0.33c0.37-0.58,0.08-2.39,0.05-3.08c-0.04-1.05-0.64-1.77-0.82-2.78c-1.43,0.45-0.98,1.36-1.31,2.5 C37.06,37.05,37.04,36.68,36.71,36.56"></path> <path d="M29.66,42.83c0.2-0.67,1.17-0.61,1.53-1.1c0.18-0.24-0.1-0.48,0.13-0.75c0.23-0.27,0.88-0.34,1.21-0.26 c0.42,0.1,2.34,1.92,2.06,2.32c-0.16,0.23-1.51,0.04-1.79,0.05c-0.64,0.01-0.99-0.16-1.56-0.27c-0.23-0.04-0.56,0-0.79,0.01 c-0.26,0.01-0.7,0.2-0.85,0.21c-0.71,0.01-0.52-0.47,0.06-0.61c0.05,0.09,0.14,0.14,0.26,0.14"></path> <path d="M31.22,48.58c0.07,0.02,0.14,0.03,0.21,0.05c0.05,0.64,0.56,1.07,0.61,1.74c1.08,0.28,2.5,0.03,3.62,0.04 c0.68,0.01,1.3,0.12,0.99-0.79c-0.2-0.58-1.05-0.91-1.04-1.51c-0.53-0.04-1.01-0.51-1.5-0.59c-0.63-0.1-1.72-0.1-2.33,0.05 c-0.03,0.35-0.06,0.7-0.27,0.95c0.16,0.08,0.32,0.09,0.5,0.05"></path> <path d="M57.35,60.07c0.76-0.6,2.34-0.26,3.13,0c0.33,0.11,0.45,0.08,0.79,0.26c0.17,0.09,0.77,0.27,0.87,0.44 c0.05,0.09-0.03,0.81-0.08,0.88c-0.25,0.33-0.38,0.25-0.86,0.24c-0.74-0.01-1.36-0.05-2.03-0.26c-0.29-0.09-0.66-0.2-0.97-0.27 c-0.27-0.06-0.85-0.28-1.12-0.28c-0.3,0-0.49,0.32-0.79,0.31c-0.39-0.01-0.43-0.23-0.76-0.3c-0.35-0.07-0.81,0.21-1.03-0.23 c-0.12-0.24,0.25-0.75,0.27-1.02c0.84-0.18,1.86-0.04,2.72-0.04c-0.07,0-0.03,0,0.11,0"></path> <path d="M76.94,101.08c-0.15-0.44-0.46-1.09-0.27-1.58c0.16-0.42,0.61-0.49,0.56-1.03c-0.04-0.39-0.37-0.47-0.5-0.79 c-0.11-0.26-0.03-0.51-0.04-0.78c-0.04-0.57-0.19-1.02-0.27-1.57c-0.09-0.69-0.09-0.92,0.51-1.05c0.64-0.14,1.05,0,1.51,0.33 c0.39,0.27,0.51,0.81,0.84,1.01c0.12,0.07,0.56-0.02,0.74,0.03c0.24,0.07,0.46,0.34,0.71,0.42c0.34,0.1,1.45-0.18,1.48,0.31 c0.02,0.35-1.58,0.49-1.91,0.54c-0.59,0.08-1.96-0.37-2.39,0.17c-0.32,0.41,0.17,0.94,0.34,1.32c0.12,0.27,0.18,0.21,0.27,0.57 c0.08,0.31-0.06,0.69-0.01,1c0.07,0.46,0.45,0.9,0.48,1.36c0.08,1.29-1.17,0.36-1.78-0.01"></path> <path d="M72.24,95.07c-0.61-0.2-0.7,0.64-0.54,1.05c0.18,0.46,1.02,0.93,1.56,0.75c-0.1-0.48-0.27-0.72-0.18-1.21 c0.06-0.35,0.45-0.72,0.06-1.14c0.08,0.08,0.13,0.18,0.14,0.3"></path> <path d="M60.74,91.94c-0.58-0.06-1.25,0.06-1.77,0.32c-0.44,0.22-0.8,0.75-1.34,0.78c-0.01,0.35,0.75,0.83,1.06,1.01 c0.71,0.4,1.55,0.25,2.33,0.25c1.1,0,2.21-0.03,3.3,0.01c-0.65-0.58-1.5-0.92-2.23-1.39c-0.68-0.44-1.07-0.44-1.88-0.45"></path> <path d="M34.88,62.94c-0.05,0.27-1.33,1.29-1.58,1.46c-0.45,0.32-1.02,0.38-0.79,1.15c0.25,0.83,1.34,0.52,2.06,0.52 c0.73,0,1.71,0.18,2.39-0.05c0.18-0.42-0.19-0.37-0.31-0.65c-0.15-0.34-0.27-1.16-0.44-1.41c-0.31-0.44-1.67-0.57-1.63-1.24 c-0.14-0.03-0.28-0.07-0.42-0.1c-0.02-0.07-0.03-0.14-0.05-0.21"></path> <path d="M31.08,53.34c0.68,0.18,1.42-0.43,2.08-0.53c0.73-0.12,1.63,0.01,2.36,0.01c1.48,0,2.96,0.01,4.44,0 c1.5-0.01,2.55,0.08,3.02,1.69c0.33,1.13,0.35,3.4,0.01,4.53c-0.52-0.18-0.96-0.69-1.46-0.99c-0.57-0.34-0.98-0.32-1.57-0.52 c-1.01-0.35-2.46-1.04-3.56-1.15c-0.08-0.28-0.14-0.57-0.19-0.86c-1.8-0.21-3.51-0.78-5.14-1.65"></path> <path d="M17.49,47.07c0.53,0.42,1.01,0.3,1.57,0.52c0.95,0.38,0.92,0.13,1.42,1.19c0.28,0.58,0.46,0.75,0.67,1.42 c0.26,0.83,0.11,1.2,1.02,1.71c0.47,0.26,1.76,0.17,2.04,0.46c0.35,0.37,0.14,2-0.03,2.43c-0.36,0.91-1.68,1.67-1.9,2.64 c0.82-0.59,2.52-0.86,3.58-0.98c0.68-0.08,1.33,0.16,1.99-0.09c0.48-0.18,0.51-0.74,1.07-0.86c-0.88,1.26-0.02,2.48,0.47,3.7 c0.46,1.14,2.27,2.7,2.27,3.84c-0.22-0.25-1.45-0.66-1.73-0.72c-0.93-0.19-2.01,0.11-2.9-0.22c-1.07-0.39-1.42-0.9-2.73-0.94 c-0.99-0.03-2.11,0.18-3.05-0.09c0.18-2.03-2.01-0.43-2.7-0.03c-0.08,0.05-1.53,0.71-1.58,0.7c-0.8-0.13-0.44-0.92-0.63-1.52 c-0.86-2.7-3.59-2.32-5.97-2.18c0.46-0.65,0.89-0.24,1.4-0.54c0.76-0.45,0.82-0.62,1.16-1.45c0.47-1.17,0.63-3.21,2.37-2.64 c0.52,0.17,0.6,0.96,1.32,0.6c0.24-0.12,0.86-1.44,0.91-1.72c0-0.36-0.02-0.72-0.04-1.07c0.09-0.53,0.33-1.07,0.42-1.57 c0.13-0.76,0.32-1.46-0.17-2.09c0.46-0.37,0.51-1.31-0.04-1.49c0.17,0.33,0.46,0.47,0.85,0.44"></path> <path d="M32.65,41.33c-1.54,0-3.4-0.14-4.77,0.46c-0.54,0.24-0.86,0.46-0.99,1.11c-0.05,0.23,0.02,0.54,0.01,0.78 c-0.01,0.52-0.01,0.48-0.26,0.78c-0.29,0.37-0.82,0.59-0.99,1.1c-0.18,0.52-0.06,1.22-0.06,1.77c0,0.58,0.1,1.27,0.01,1.83 c-0.07,0.41-0.66,0.88-0.53,1.26c0.71,0.3,1.86-0.21,2.64-0.23c0.51-0.01,1.03,0.02,1.54,0.01c0.57-0.02,1.01-0.2,1.57-0.27 c0.56-0.07,1.05,0.13,1.57-0.18c0.85-0.5,0.82-1.56,1.03-2.43c0.16-0.66,0.52-1.04,0.54-1.76c0.02-0.53-0.29-1.65,0.21-1.97 c-0.28-0.36-0.13-0.76-0.26-1.19c-0.14-0.03-0.29-0.06-0.43-0.09c-0.03-0.24-0.06-0.46-0.08-0.7c-0.33-0.08-0.66-0.03-1.01-0.04"></path> <path d="M37.87,82.86c0.35-0.2,0.69-0.4,1.03-0.61c0.05-0.15,0.14-0.28,0.26-0.39c0.3-0.18,0.69-0.18,1.01-0.38 c0.24-0.15,0.28-0.37,0.56-0.47c0.22-0.08,0.82-0.02,1.06,0.01c1.47,0.19,2.67,1.15,4.14,1.36c0.03,0.14,0.06,0.29,0.1,0.43 c0.35,0.03,0.41,0.21,0.66,0.37c0.42,0.26,0.61,0.54,1.19,0.67c0.9,0.2,1.65,0.51,2.49,0.92c0.61,0.3,1.09,0.86,1.44,1.48 c0.19,0.35,0.14,0.61,0.43,0.87c0.29,0.25,0.59,0.35,0.87,0.65c0.41,0.43,0.34,0.35,0.51,0.97c0.08,0.31,0.69,1.1,0.5,1.47 c-0.26,0.48-1.37,0.21-1.91,0.3c-0.72,0.13-1.3,0.35-1.97,0.52c-0.55,0.14-1.21,0.59-1.88,0.48c-0.38-0.07-0.55-0.37-0.84-0.48 c-0.32-0.12-0.64-0.03-0.97-0.05c-0.75-0.03-1.91-0.19-2.57-0.58c-0.26-0.15-0.49-0.57-0.78-0.74c-0.3-0.17-0.51-0.14-0.86-0.3 c-0.13-0.12-0.23-0.27-0.31-0.43c-0.13-0.04-0.26-0.08-0.39-0.11c-0.27-0.18-0.62-0.3-0.86-0.46c-0.92-0.6-1.33-1.76-2.14-2.55 c-0.39-0.38-0.91-0.79-0.99-1.36c-0.12-0.85,0.99-1.21,0.8-1.84"></path> <path d="M48.32,62.49c1.13,0,2.26,0,3.4,0c0.43,0,1.19-0.15,1.58-0.01c0.4,0.14,0.5,0.55,0.98,0.59c0.03,0.14,0.07,0.28,0.1,0.42 c0.44,0.03,0.64,0.39,0.99,0.58c0.5,0.27,1.04,0.01,1.06,0.78c0.03,1.36-2.55,0.93-3.41,1.03c-0.73,0.09-1.37,0.48-2.09,0.54 c-0.64,0.06-1.51-0.34-1.98-0.78c-0.22-0.2-0.34-0.51-0.38-0.8c-0.05-0.36,0.22-0.64,0.23-0.84c0.01-0.61-0.85-1.02-0.1-1.46 c-0.21-0.08-0.42-0.09-0.64-0.05"></path> <path d="M43.88,59.87c-1.03-0.28-1.38,1.68-1.12,2.15c0.27,0.49,0.83,0.58,1.13,0.98c0.29,0.38,0.24,0.86,0.77,1.06 c1.25,0.46,0.79-1.92,0.8-2.62c0-0.56,0.13-1.09-0.26-1.51c-0.37-0.41-0.86-0.4-1.25-0.08c-0.02-0.08-0.04-0.15-0.06-0.23"></path> <path d="M46.75,57.52c-0.07,0.01-0.14,0.03-0.22,0.04c-0.07,0.22-0.18,1.08-0.06,1.28c0.22,0.38,0.85,0.47,1.29,0.55 c0.2,0.8-0.18,1.06,0.88,1c0.65-0.03,1.18-0.18,0.79-0.85c-0.36-0.63-1.03-0.41-1.64-0.65c-0.5-0.19-1.13-0.59-1.31-1.12"></path> <path d="M47.54,44.46c-0.44-0.07-1.21,0.3-1.58,0.52c-0.32,0.2-0.57,0.54-0.98,0.57c-0.03,0.14-0.07,0.28-0.1,0.42 c-0.14,0.04-0.28,0.07-0.43,0.09c-0.19,0.64,0.07,1.26-0.24,1.86c-0.35,0.69-0.63,0.88-0.59,1.76c0.04,0.86,0.43,0.89,0.8,1.56 c0.16,0.29-0.04,0.46,0.3,0.73c0.14,0.12,0.65,0.24,0.81,0.15c0.2-0.12,0.23-0.5,0.37-0.68c0.19-0.25,0.42-0.51,0.6-0.72 c0.44-0.5,0.93-1.05,1.37-1.58c0.2-0.24,0.48-0.37,0.71-0.56c0.28-0.23,0.44-0.6,0.72-0.81c0.26-0.2,0.45-0.15,0.61-0.43 c0.12-0.2,0-1.06-0.06-1.28c-0.14-0.03-0.29-0.06-0.43-0.09c-0.04-0.14-0.07-0.28-0.09-0.43c-0.31-0.09-0.63-0.05-0.94-0.1 c-0.21-0.04-0.51-0.21-0.8-0.25c-0.01-0.07-0.03-0.15-0.04-0.22"></path> <path d="M22.72,12.07c0.21,0.63,1.41,1.7,2.08,1.84c0.41,0.09,1.02,0.05,1.27-0.33c0.36-0.56-0.24-0.97-0.25-1.47 c-0.19-0.03-0.52,0.03-0.69-0.08c-0.24-0.16-0.27-0.62-0.54-0.82c0.07-0.08,0.12-0.34,0.19-0.42c-0.36,0.11-0.58,0.62-0.99,0.76 c-0.18,0.06-0.53,0.01-0.74,0.04c-0.22,0.04-0.5,0.22-0.8,0.24c-0.07,0.16-0.08,0.32-0.04,0.48"></path> <path d="M17.49,10.5c0,0.51-0.08,1.08,0.05,1.57c0.14,0.53,0.55,1.05,0.74,1.57c0.18,0.5,0.14,0.85,0.77,1.06 c0.37,0.13,1.04,0.02,1.26-0.33c0.37-0.58,0.08-2.39,0.05-3.08c-0.04-1.05-0.64-1.77-0.82-2.78c-1.43,0.45-0.98,1.36-1.31,2.5 C17.84,11,17.83,10.63,17.49,10.5"></path> <path d="M10.44,16.77c0.2-0.67,1.17-0.61,1.53-1.1c0.18-0.24-0.1-0.48,0.13-0.75c0.23-0.27,0.88-0.34,1.21-0.26 c0.42,0.1,2.34,1.92,2.06,2.32c-0.16,0.23-1.51,0.04-1.79,0.05c-0.64,0.01-0.99-0.16-1.56-0.27c-0.23-0.04-0.56,0-0.79,0.01 c-0.26,0.01-0.7,0.21-0.85,0.21c-0.71,0.01-0.52-0.47,0.06-0.61c0.05,0.09,0.14,0.14,0.26,0.14"></path> <path d="M12.01,22.52c0.07,0.02,0.14,0.03,0.21,0.05c0.05,0.64,0.56,1.07,0.61,1.74c1.08,0.28,2.5,0.03,3.62,0.04 c0.68,0.01,1.3,0.12,0.99-0.79c-0.2-0.58-1.05-0.91-1.04-1.51c-0.53-0.04-1.01-0.51-1.5-0.59c-0.63-0.1-1.72-0.1-2.33,0.05 c-0.03,0.35-0.06,0.7-0.27,0.95c0.16,0.08,0.32,0.09,0.5,0.05"></path> <path d="M38.13,34.01c0.76-0.6,2.34-0.26,3.13,0c0.33,0.11,0.45,0.08,0.79,0.26c0.17,0.09,0.77,0.27,0.87,0.44 c0.05,0.09-0.03,0.81-0.08,0.88c-0.25,0.33-0.38,0.25-0.86,0.24c-0.74-0.01-1.36-0.05-2.03-0.26c-0.29-0.09-0.66-0.2-0.97-0.27 c-0.27-0.06-0.85-0.28-1.12-0.28c-0.3,0-0.49,0.32-0.79,0.31c-0.39-0.01-0.43-0.23-0.76-0.3c-0.35-0.07-0.81,0.21-1.03-0.23 c-0.12-0.24,0.25-0.75,0.27-1.02c0.84-0.18,1.86-0.04,2.72-0.04c-0.07,0-0.03,0,0.11,0"></path> <path d="M57.72,75.03c-0.15-0.44-0.46-1.09-0.27-1.58c0.16-0.42,0.61-0.49,0.56-1.03c-0.04-0.39-0.37-0.47-0.5-0.79 c-0.11-0.26-0.03-0.51-0.04-0.78c-0.04-0.57-0.19-1.02-0.27-1.57c-0.09-0.69-0.09-0.92,0.51-1.05c0.64-0.14,1.05,0,1.51,0.33 c0.39,0.27,0.51,0.81,0.84,1.01c0.12,0.07,0.56-0.02,0.74,0.03c0.24,0.07,0.46,0.34,0.71,0.42c0.34,0.1,1.45-0.18,1.48,0.31 c0.02,0.35-1.58,0.49-1.91,0.54c-0.59,0.08-1.96-0.37-2.39,0.17c-0.32,0.41,0.17,0.94,0.34,1.32c0.12,0.27,0.18,0.21,0.27,0.57 c0.08,0.31-0.06,0.69-0.01,1c0.07,0.46,0.45,0.9,0.48,1.37c0.08,1.29-1.17,0.36-1.78-0.01"></path> <path d="M53.02,69.02c-0.61-0.2-0.7,0.64-0.54,1.05c0.18,0.46,1.02,0.93,1.56,0.75c-0.1-0.48-0.27-0.72-0.18-1.21 c0.06-0.35,0.45-0.72,0.06-1.14c0.08,0.08,0.13,0.18,0.14,0.3"></path> <path d="M41.53,65.88c-0.58-0.06-1.25,0.06-1.77,0.32c-0.44,0.22-0.8,0.75-1.34,0.78c-0.01,0.35,0.75,0.83,1.06,1.01 c0.71,0.4,1.55,0.25,2.33,0.25c1.1,0,2.2-0.03,3.3,0.01c-0.65-0.58-1.5-0.92-2.23-1.39c-0.68-0.44-1.07-0.44-1.88-0.45"></path> <path d="M15.67,36.89c-0.05,0.27-1.33,1.29-1.58,1.46c-0.45,0.32-1.02,0.38-0.79,1.15c0.25,0.83,1.34,0.52,2.06,0.52 c0.73,0,1.71,0.18,2.39-0.05c0.18-0.42-0.19-0.37-0.31-0.65c-0.15-0.34-0.27-1.16-0.44-1.41c-0.31-0.44-1.67-0.57-1.63-1.24 c-0.14-0.03-0.28-0.07-0.42-0.1c-0.02-0.07-0.03-0.14-0.05-0.21"></path> <path d="M56.85,181.14c0.68,0.18,1.43-0.43,2.08-0.53c0.73-0.12,1.63,0.01,2.36,0.01c1.48,0,2.96,0.01,4.44,0 c1.5-0.01,2.55,0.08,3.02,1.69c0.33,1.13,0.35,3.4,0.01,4.53c-0.52-0.18-0.96-0.69-1.47-0.99c-0.57-0.34-0.98-0.32-1.57-0.52 c-1.01-0.35-2.46-1.04-3.56-1.15c-0.08-0.28-0.14-0.57-0.19-0.86c-1.8-0.21-3.51-0.78-5.14-1.65"></path> <path d="M43.26,174.87c0.53,0.42,1.01,0.3,1.57,0.52c0.95,0.38,0.92,0.13,1.42,1.19c0.28,0.58,0.46,0.75,0.67,1.42 c0.26,0.83,0.11,1.2,1.02,1.71c0.47,0.26,1.76,0.17,2.04,0.46c0.35,0.37,0.14,2-0.03,2.43c-0.36,0.91-1.68,1.67-1.9,2.64 c0.82-0.59,2.52-0.86,3.58-0.98c0.68-0.08,1.33,0.16,1.99-0.09c0.48-0.18,0.51-0.74,1.07-0.86c-0.88,1.26-0.02,2.48,0.47,3.7 c0.46,1.14,2.27,2.7,2.27,3.84c-0.22-0.25-1.45-0.66-1.73-0.72c-0.93-0.19-2.01,0.11-2.9-0.22c-1.07-0.39-1.42-0.9-2.73-0.94 c-0.99-0.03-2.11,0.18-3.05-0.09c0.18-2.03-2.01-0.43-2.7-0.03c-0.08,0.05-1.53,0.71-1.58,0.7c-0.8-0.13-0.44-0.92-0.63-1.52 c-0.86-2.7-3.59-2.32-5.97-2.18c0.46-0.65,0.89-0.24,1.4-0.54c0.76-0.45,0.82-0.62,1.16-1.45c0.47-1.17,0.63-3.22,2.37-2.64 c0.52,0.17,0.6,0.96,1.32,0.6c0.24-0.12,0.86-1.44,0.91-1.72c0-0.36-0.02-0.72-0.04-1.07c0.09-0.53,0.33-1.07,0.42-1.57 c0.13-0.76,0.32-1.46-0.17-2.09c0.46-0.37,0.51-1.31-0.04-1.49c0.17,0.32,0.46,0.47,0.85,0.44"></path> <path d="M58.41,169.13c-1.54,0-3.4-0.14-4.77,0.46c-0.54,0.24-0.86,0.46-0.99,1.11c-0.05,0.23,0.02,0.54,0.01,0.78 c-0.01,0.52-0.01,0.48-0.26,0.78c-0.29,0.37-0.82,0.59-0.99,1.11c-0.18,0.52-0.06,1.22-0.06,1.77c0,0.58,0.1,1.27,0.01,1.83 c-0.07,0.41-0.66,0.87-0.53,1.26c0.71,0.3,1.86-0.21,2.64-0.23c0.51-0.01,1.03,0.02,1.54,0c0.57-0.02,1.01-0.2,1.57-0.27 c0.56-0.06,1.05,0.13,1.57-0.18c0.85-0.5,0.82-1.56,1.03-2.43c0.16-0.66,0.52-1.04,0.54-1.76c0.02-0.53-0.29-1.65,0.21-1.97 c-0.28-0.36-0.13-0.76-0.26-1.19c-0.14-0.03-0.29-0.06-0.43-0.09c-0.03-0.24-0.06-0.46-0.08-0.7c-0.33-0.09-0.67-0.03-1.01-0.04"></path> <path d="M63.64,210.66c0.35-0.2,0.69-0.4,1.03-0.61c0.05-0.15,0.14-0.28,0.26-0.39c0.3-0.18,0.69-0.18,1.01-0.38 c0.24-0.15,0.28-0.37,0.56-0.47c0.22-0.08,0.82-0.02,1.06,0.01c1.47,0.18,2.67,1.15,4.13,1.35c0.03,0.14,0.06,0.29,0.1,0.43 c0.35,0.03,0.41,0.21,0.66,0.37c0.42,0.26,0.61,0.54,1.19,0.67c0.9,0.2,1.65,0.51,2.49,0.92c0.61,0.29,1.09,0.86,1.44,1.48 c0.19,0.35,0.14,0.61,0.43,0.87c0.29,0.25,0.59,0.35,0.87,0.65c0.41,0.43,0.34,0.35,0.51,0.96c0.08,0.31,0.69,1.1,0.5,1.47 c-0.26,0.48-1.37,0.21-1.91,0.3c-0.72,0.13-1.3,0.35-1.97,0.52c-0.55,0.14-1.21,0.59-1.88,0.48c-0.38-0.07-0.55-0.37-0.84-0.48 c-0.32-0.12-0.64-0.03-0.97-0.05c-0.75-0.03-1.91-0.19-2.57-0.58c-0.26-0.15-0.49-0.57-0.78-0.74c-0.3-0.17-0.51-0.14-0.86-0.3 c-0.13-0.12-0.23-0.27-0.31-0.43c-0.13-0.04-0.26-0.08-0.39-0.11c-0.27-0.18-0.62-0.3-0.86-0.46c-0.92-0.6-1.33-1.76-2.14-2.55 c-0.39-0.38-0.91-0.79-0.99-1.36c-0.12-0.85,0.99-1.21,0.8-1.84"></path> <path d="M74.09,190.29c1.13,0,2.26,0,3.4,0c0.43,0,1.19-0.15,1.58-0.01c0.4,0.14,0.5,0.55,0.98,0.59c0.03,0.14,0.07,0.28,0.1,0.42 c0.44,0.03,0.64,0.39,0.99,0.58c0.5,0.27,1.04,0.01,1.06,0.78c0.03,1.36-2.55,0.93-3.41,1.03c-0.73,0.09-1.37,0.48-2.09,0.54 c-0.64,0.06-1.51-0.34-1.98-0.78c-0.22-0.2-0.34-0.51-0.38-0.8c-0.05-0.36,0.22-0.64,0.23-0.84c0.01-0.61-0.85-1.02-0.1-1.46 c-0.21-0.08-0.42-0.09-0.64-0.05"></path> <path d="M69.65,187.67c-1.03-0.28-1.38,1.68-1.12,2.15c0.27,0.49,0.83,0.58,1.13,0.98c0.29,0.38,0.25,0.86,0.77,1.06 c1.25,0.46,0.79-1.92,0.8-2.62c0-0.56,0.13-1.09-0.26-1.51c-0.37-0.41-0.86-0.4-1.25-0.08c-0.02-0.08-0.04-0.15-0.06-0.23"></path> <path d="M72.52,185.32c-0.07,0.02-0.14,0.03-0.22,0.04c-0.07,0.22-0.18,1.08-0.06,1.28c0.22,0.39,0.85,0.47,1.29,0.55 c0.2,0.8-0.18,1.06,0.88,1c0.65-0.03,1.18-0.18,0.79-0.85c-0.36-0.63-1.03-0.41-1.64-0.65c-0.5-0.19-1.13-0.59-1.31-1.11"></path> <path d="M73.3,172.26c-0.44-0.07-1.21,0.3-1.58,0.52c-0.32,0.2-0.57,0.54-0.98,0.57c-0.03,0.14-0.07,0.28-0.1,0.42 c-0.14,0.04-0.28,0.07-0.43,0.09c-0.19,0.64,0.07,1.27-0.24,1.86c-0.35,0.69-0.63,0.88-0.59,1.76c0.04,0.86,0.43,0.89,0.8,1.56 c0.16,0.29-0.04,0.46,0.3,0.73c0.14,0.12,0.65,0.25,0.81,0.15c0.2-0.12,0.23-0.5,0.37-0.68c0.19-0.25,0.42-0.51,0.6-0.72 c0.44-0.5,0.93-1.05,1.37-1.58c0.2-0.24,0.48-0.37,0.71-0.56c0.28-0.23,0.44-0.6,0.72-0.81c0.26-0.2,0.45-0.15,0.61-0.42 c0.12-0.2,0-1.06-0.06-1.28c-0.14-0.03-0.29-0.06-0.43-0.09c-0.04-0.14-0.07-0.29-0.09-0.43c-0.31-0.09-0.63-0.05-0.94-0.1 c-0.21-0.04-0.51-0.21-0.8-0.25c-0.01-0.07-0.03-0.14-0.04-0.22"></path> <path d="M48.49,139.87c0.21,0.63,1.41,1.7,2.08,1.84c0.41,0.09,1.02,0.06,1.27-0.33c0.36-0.56-0.24-0.97-0.25-1.47 c-0.19-0.03-0.52,0.03-0.69-0.08c-0.24-0.16-0.27-0.62-0.54-0.82c0.07-0.09,0.12-0.35,0.19-0.42c-0.36,0.11-0.58,0.62-0.99,0.76 c-0.18,0.06-0.53,0.01-0.74,0.05c-0.22,0.04-0.5,0.21-0.8,0.24c-0.07,0.16-0.08,0.32-0.04,0.48"></path> <path d="M43.26,138.3c0,0.51-0.08,1.08,0.05,1.57c0.14,0.53,0.55,1.06,0.74,1.57c0.18,0.5,0.14,0.85,0.77,1.06 c0.37,0.12,1.04,0.02,1.26-0.33c0.37-0.58,0.08-2.39,0.05-3.08c-0.04-1.05-0.64-1.77-0.82-2.78c-1.43,0.45-0.98,1.36-1.31,2.5 C43.61,138.79,43.59,138.43,43.26,138.3"></path> <path d="M36.21,144.57c0.2-0.67,1.17-0.61,1.53-1.1c0.18-0.24-0.1-0.48,0.13-0.75c0.23-0.27,0.88-0.34,1.21-0.26 c0.42,0.1,2.34,1.92,2.06,2.32c-0.16,0.23-1.51,0.04-1.79,0.05c-0.64,0.01-0.99-0.16-1.56-0.27c-0.23-0.04-0.56,0-0.79,0.01 c-0.26,0.01-0.7,0.21-0.85,0.21c-0.71,0.01-0.52-0.47,0.06-0.61c0.05,0.09,0.14,0.14,0.26,0.14"></path> <path d="M37.78,150.32c0.07,0.02,0.14,0.03,0.21,0.05c0.05,0.64,0.56,1.07,0.61,1.74c1.08,0.28,2.5,0.02,3.62,0.04 c0.68,0.01,1.3,0.12,0.99-0.79c-0.2-0.58-1.05-0.91-1.04-1.51c-0.53-0.04-1.01-0.51-1.5-0.59c-0.63-0.1-1.72-0.1-2.33,0.05 c-0.03,0.35-0.06,0.7-0.27,0.95c0.16,0.08,0.32,0.09,0.5,0.05"></path> <path d="M63.9,161.81c0.76-0.6,2.34-0.26,3.13,0c0.33,0.11,0.45,0.08,0.79,0.26c0.17,0.09,0.77,0.27,0.87,0.44 c0.05,0.09-0.03,0.81-0.08,0.88c-0.25,0.33-0.38,0.25-0.86,0.24c-0.74-0.01-1.36-0.05-2.03-0.26c-0.29-0.09-0.66-0.2-0.97-0.27 c-0.27-0.06-0.85-0.28-1.12-0.28c-0.3,0-0.49,0.32-0.79,0.31c-0.39-0.01-0.43-0.23-0.76-0.29c-0.35-0.07-0.81,0.21-1.03-0.23 c-0.12-0.24,0.25-0.75,0.27-1.02c0.84-0.18,1.86-0.04,2.72-0.04c-0.07,0-0.03,0,0.11,0"></path> <path d="M83.49,202.82c-0.14-0.44-0.46-1.09-0.27-1.58c0.16-0.42,0.61-0.49,0.56-1.03c-0.04-0.39-0.37-0.47-0.5-0.79 c-0.11-0.26-0.03-0.51-0.04-0.78c-0.04-0.57-0.19-1.02-0.27-1.57c-0.09-0.69-0.09-0.92,0.51-1.05c0.64-0.14,1.05,0,1.51,0.33 c0.39,0.27,0.51,0.81,0.84,1.01c0.12,0.07,0.56-0.02,0.74,0.03c0.24,0.07,0.46,0.34,0.71,0.42c0.34,0.1,1.45-0.18,1.48,0.31 c0.02,0.35-1.58,0.49-1.91,0.54c-0.59,0.08-1.96-0.37-2.39,0.17c-0.32,0.41,0.17,0.94,0.34,1.33c0.12,0.27,0.18,0.21,0.27,0.57 c0.08,0.31-0.06,0.69-0.01,1c0.07,0.46,0.45,0.9,0.48,1.37c0.08,1.29-1.17,0.36-1.78-0.01"></path> <path d="M78.79,196.82c-0.61-0.2-0.7,0.64-0.54,1.05c0.18,0.46,1.02,0.93,1.56,0.75c-0.1-0.48-0.27-0.72-0.18-1.21 c0.06-0.35,0.45-0.72,0.06-1.14c0.08,0.08,0.13,0.18,0.14,0.3"></path> <path d="M67.3,193.68c-0.58-0.06-1.25,0.06-1.77,0.32c-0.44,0.22-0.8,0.75-1.34,0.78c-0.01,0.35,0.75,0.83,1.06,1 c0.71,0.4,1.55,0.25,2.33,0.25c1.1,0,2.21-0.03,3.3,0.01c-0.65-0.59-1.5-0.92-2.23-1.39c-0.68-0.44-1.07-0.44-1.88-0.45"></path> <path d="M41.43,164.69c-0.05,0.27-1.33,1.29-1.58,1.46c-0.45,0.32-1.02,0.38-0.79,1.15c0.25,0.83,1.34,0.52,2.06,0.52 c0.73,0,1.71,0.18,2.39-0.05c0.18-0.42-0.19-0.38-0.31-0.65c-0.15-0.34-0.27-1.16-0.44-1.41c-0.31-0.44-1.67-0.57-1.63-1.24 c-0.14-0.03-0.28-0.07-0.42-0.1c-0.02-0.07-0.03-0.14-0.05-0.21"></path> </g> </svg> 